<svg xmlns="http://www.w3.org/2000/svg" width="221.77" height="133.389" viewBox="0 0 221.77 133.389">
  <g id="undraw_sign_in_e6hj" transform="translate(0 0)">
    <path id="Path_46" data-name="Path 46" d="M77.84,367.156l13.079-18.793L77.833,369.2l-.008,2.138q-1.4-.012-2.77-.091c0-.486,1.108-27.2,1.06-27.681.065-.018.1-2.526.126-2.636L62.578,320.395l13.679,18.592.041.55.811-20.753L65.363,297.531,77.2,315.137c0-.282.56-42.894.566-43.157,0,.14.259,33.91.26,34.053l11.233-13.593L78.017,308.953l-.057,18.574,10.425-17.961c-13.01,26.194-10.131,17.028-10.463,31.02l15.142-25.01L77.908,344.19Z" transform="translate(-62.509 -241.993)" fill="#d0cde1"/>
    <path id="Path_47" data-name="Path 47" d="M1082.509,593.242l5.45-7.831-5.453,8.683,0,.891q-.583,0-1.154-.038c0-.2.462-11.334.442-11.535.027-.008.042-1.053.053-1.1l-5.693-8.558,5.7,7.748.017.229.338-8.648-4.895-8.856,4.933,7.337c0-.118.234-17.875.236-17.984,0,.058.108,14.131.109,14.191l4.681-5.665-4.686,6.882-.024,7.74,4.344-7.485c-5.421,10.916-4.222,7.1-4.36,12.927l6.31-10.422-6.316,11.924Z" transform="translate(-867.084 -465.527)" fill="#d0cde1"/>
    <ellipse id="Ellipse_29" data-name="Ellipse 29" cx="110.522" cy="4.33" rx="110.522" ry="4.33" transform="translate(0 124.729)" fill="#d0cde1"/>
    <rect id="Rectangle_48" data-name="Rectangle 48" width="126.193" height="75.236" transform="translate(37.94 51.144)" fill="#3f3d56"/>
    <path id="Path_48" data-name="Path 48" d="M277.473,374.581A30.178,30.178,0,0,1,247.3,404.267c-.355,0-.707-.006-1.06-.019V374.581Z" transform="translate(-208.302 -323.437)" fill="#f15d90"/>
    <path id="Path_49" data-name="Path 49" d="M535.974,723.331h-12a6.394,6.394,0,0,1,12,0Z" transform="translate(-428.764 -596.952)" fill="#f15d90"/>
    <path id="Path_50" data-name="Path 50" d="M811.789,550.721v25.342a12.686,12.686,0,0,1,0-25.342Z" transform="translate(-647.656 -463.258)" fill="#f15d90"/>
    <rect id="Rectangle_49" data-name="Rectangle 49" width="87.045" height="7.436" rx="3.718" transform="translate(57.624 78.482)" fill="#fff"/>
    <rect id="Rectangle_50" data-name="Rectangle 50" width="87.045" height="7.436" rx="3.718" transform="translate(57.624 93.136)" fill="#fff"/>
    <rect id="Rectangle_51" data-name="Rectangle 51" width="30.518" height="7.436" rx="3.718" transform="translate(114.151 107.789)" fill="#fff"/>
    <path id="Path_51" data-name="Path 51" d="M940.451,238.651a6.392,6.392,0,0,1,3.663,5.783c.193,4.434-.964,16.772-.964,16.772s4.241,6.169.964,7.9-3.663-6.94-3.663-6.94L936.6,243.856S938.909,238.458,940.451,238.651Z" transform="translate(-756.305 -215.532)" fill="#a0616a"/>
    <path id="Path_52" data-name="Path 52" d="M749.734,210.328s-8.29,5.4-8.675,1.157,2.506-20.82,2.506-20.82.386-7.133,4.434-5.4-1.157,7.711-1.157,7.711l.578,13.495,3.856-.193Z" transform="translate(-601.06 -172.944)" fill="#a0616a"/>
    <path id="Path_53" data-name="Path 53" d="M754.809,317.626s-25.447-9.446-24.1,1.542,7.9,24.869,7.9,24.869l2.313,3.663h4.82l-3.085-19.857s10.989,6.169,14.266,5.205c0,0,4.241,28.339,5.783,30.459s4.241,27.76,4.241,27.76l2.506,3.084h4.82V350.977s8.29-26.989,1.928-28.339S754.809,317.626,754.809,317.626Z" transform="translate(-592.833 -275.229)" fill="#2f2e41"/>
    <path id="Path_54" data-name="Path 54" d="M720.968,462.23s-1.157-2.121-3.084,0-6.555,4.627-6.555,4.627S701.3,469.17,709.4,471.1s9.061,0,9.061,0,1.349.386,2.506.771,8.675-.964,8.675-2.121-2.552-8.069-3.59-7.023S720.968,462.23,720.968,462.23Z" transform="translate(-573.45 -392.265)" fill="#2f2e41"/>
    <path id="Path_55" data-name="Path 55" d="M873.995,688.111s-2.842-2.341-3.511-1.672-4.18,5.183-4.18,5.183-9.363,7.19-.836,8.36,8.026-2.006,8.026-2.006h2.675c.334,0,4.849-2.006,4.682-2.842s-2.174-7.653-2.842-7.171S873.995,688.111,873.995,688.111Z" transform="translate(-696.998 -570.896)" fill="#2f2e41"/>
    <circle id="Ellipse_30" data-name="Ellipse 30" cx="6.555" cy="6.555" r="6.555" transform="translate(144.626 2.684)" fill="#a0616a"/>
    <path id="Path_56" data-name="Path 56" d="M802.274,167.615s5.012,4.241,8.482,4.241-5.012,7.9-5.012,7.9l-7.518-6.747Z" transform="translate(-646.467 -159.147)" fill="#a0616a"/>
    <path id="Path_57" data-name="Path 57" d="M783.793,180.364l-.15-1.519s3.813-6.771,4.97-7.349a4.786,4.786,0,0,1,1.928-.578s3.856-4.048,8.1-1.928S812.9,184.6,812.9,184.6s-7.133.578-6.169,6.169c0,0,7.133,18.314,5.205,18.507s-7.711-1.157-13.687,1.542-8.675.964-8.675.964l-3.084-10.025s-5.783-3.277-5.591-6.169l-8.386,3.759.771-7.133,5.109-5.88S777.431,185.569,783.793,180.364Z" transform="translate(-626.058 -159.751)" fill="#575a89"/>
    <path id="Path_58" data-name="Path 58" d="M753.543,136.5a2.42,2.42,0,0,1-.952.648.83.83,0,0,1-.992-.382l.277-.361-.831-.516.362-.425-.669-.727.528-.419-1.006-.719a17.889,17.889,0,0,1,4.771-5.69c2.058-1.41,4.933-1.911,7.041-.577a7.7,7.7,0,0,1,2.488,2.928,17.048,17.048,0,0,1,2.508,7.115c-.783-.763-1.927-1.192-2.71-1.955a5.869,5.869,0,0,0-1.169-.957,9.78,9.78,0,0,0-2.716-.711,4.081,4.081,0,0,1-1.855-1.02c-.694-.591-.722-.363-1.423.3Q755.371,134.767,753.543,136.5Z" transform="translate(-608.392 -126.55)" fill="#2f2e41"/>
  </g>
</svg>
