<svg id="undraw_cooking_lyxy" xmlns="http://www.w3.org/2000/svg" width="140.315" height="145.497" viewBox="0 0 140.315 145.497">
  <rect id="Rectangle_46" data-name="Rectangle 46" width="6.36" height="100.996" transform="matrix(0.836, -0.548, 0.548, 0.836, 26.537, 54.36)" fill="#e6e6e6"/>
  <path id="Path_24" data-name="Path 24" d="M264.55,167.205l12.305,18.762a1.638,1.638,0,1,1-2.74,1.8L259.969,166.2a11.685,11.685,0,0,0-5.618.923l15.413,23.5a1.638,1.638,0,0,1-2.74,1.8l-15.413-23.5a11.685,11.685,0,0,0-3.085,4.785l14.147,21.569a1.638,1.638,0,0,1-2.74,1.8L247.627,178.3c-.316,5.231,1.39,11.432,5.128,17.131,6.947,10.592,18.279,15.44,25.311,10.828s7.1-16.938.153-27.53C274.481,173.035,269.474,169,264.55,167.205Z" transform="translate(-245.356 -148.115)" fill="#e6e6e6"/>
  <rect id="Rectangle_47" data-name="Rectangle 47" width="7" height="101" transform="translate(49 39)" fill="#e6e6e6"/>
  <ellipse id="Ellipse_9" data-name="Ellipse 9" cx="15.5" cy="23" rx="15.5" ry="23" transform="translate(37)" fill="#e6e6e6"/>
  <ellipse id="Ellipse_10" data-name="Ellipse 10" cx="12.528" cy="18.872" rx="12.528" ry="18.872" transform="translate(39.897 4.065)" fill="#ccc"/>
  <ellipse id="Ellipse_11" data-name="Ellipse 11" cx="70.158" cy="4.025" rx="70.158" ry="4.025" transform="translate(0 137.446)" fill="#e6e6e6"/>
  <path id="Path_25" data-name="Path 25" d="M467.93,643.432a224.119,224.119,0,0,0-79.513,0A2.9,2.9,0,0,1,385,640.58V604.557h86.348V640.58a2.9,2.9,0,0,1-3.418,2.851Z" transform="translate(-356.282 -502.019)" fill="#f15d90"/>
  <path id="Path_26" data-name="Path 26" d="M410.195,386.639a17.9,17.9,0,0,0-5.858.98A34.511,34.511,0,0,0,341.8,387.3a17.926,17.926,0,1,0,2.346,33.681,34.506,34.506,0,0,0,57.966-.417,17.926,17.926,0,1,0,8.08-33.929Z" transform="translate(-303.031 -310.699)" fill="#f15d90"/>
  <path id="Path_27" data-name="Path 27" d="M419.385,484.41H419a34.386,34.386,0,0,1,3.324-14.838l.348.165A34,34,0,0,0,419.385,484.41Z" transform="translate(-383.728 -393.051)" fill="#3f3d56"/>
  <path id="Path_28" data-name="Path 28" d="M764.232,485.739h-.385a34.024,34.024,0,0,0-3.14-14.359l.35-.161A34.406,34.406,0,0,1,764.232,485.739Z" transform="translate(-659.574 -394.38)" fill="#3f3d56"/>
  <path id="Path_29" data-name="Path 29" d="M384.852,669.894l-.093-.374a191.116,191.116,0,0,1,27.119-4.053c14.818-1.232,37.139-1.529,59.323,4.053l-.094.374c-22.13-5.568-44.4-5.272-59.189-4.043A190.7,190.7,0,0,0,384.852,669.894Z" transform="translate(-356.087 -550.594)" fill="#3f3d56"/>
  <path id="Path_30" data-name="Path 30" d="M384.852,696.895l-.093-.374a191.1,191.1,0,0,1,27.119-4.053c14.818-1.232,37.139-1.529,59.323,4.053l-.094.374c-22.13-5.568-44.4-5.272-59.189-4.043A190.7,190.7,0,0,0,384.852,696.895Z" transform="translate(-356.087 -572.39)" fill="#3f3d56"/>
  <path id="Path_31" data-name="Path 31" d="M384.852,723.895l-.093-.374a191.088,191.088,0,0,1,27.119-4.053c14.818-1.232,37.139-1.529,59.323,4.053l-.094.374c-22.13-5.568-44.4-5.272-59.189-4.043A190.71,190.71,0,0,0,384.852,723.895Z" transform="translate(-356.087 -594.185)" fill="#3f3d56"/>
  <path id="Path_32" data-name="Path 32" d="M645.686,458.662l-4.67-1.588,4.483-22.884-3.082-.28c-3.006,2.306-7.008,3.21-12.142,2.522l8.22,12.423-4.191,2.958-13.37-16.037A4.022,4.022,0,0,1,620,433.2h0a4.022,4.022,0,0,1,2.909-3.865l14.278-4.113,16.719,1.868c2.528,3.854,2.627,6.534-1.221,7.307Z" transform="translate(-545.987 -357.251)" fill="#2f2e41"/>
  <path id="Path_33" data-name="Path 33" d="M716.4,595.784h0a3.076,3.076,0,0,1-2.672-4.185l2.322-5.97c1.179-2.234,2.8-1.954,4.709,0l.934,2.74a1.769,1.769,0,0,1-.1,1.383l-2.263,4.375A3.076,3.076,0,0,1,716.4,595.784Z" transform="translate(-621.479 -485.469)" fill="#2f2e41"/>
  <path id="Path_34" data-name="Path 34" d="M685.083,555.221h0a3.076,3.076,0,0,1-2.672-4.185l2.322-5.97c1.179-2.234,2.8-1.954,4.709,0l.934,2.74a1.769,1.769,0,0,1-.1,1.383l-2.263,4.375A3.076,3.076,0,0,1,685.083,555.221Z" transform="translate(-596.2 -452.725)" fill="#2f2e41"/>
  <circle id="Ellipse_12" data-name="Ellipse 12" cx="5.231" cy="5.231" r="5.231" transform="translate(86.622 35.656)" fill="#ffb9b9"/>
  <path id="Path_35" data-name="Path 35" d="M482.339,224.986l-7.192,3.736L473.652,222l4.95-3.082Z" transform="translate(-382.36 -176.721)" fill="#ffb9b9"/>
  <path id="Path_36" data-name="Path 36" d="M703.162,332.53c-7.176-2.168-13.688-3.291-18.4-1.588,1.624-4.57-1.374-11.547-4.67-18.681,1.422-1.859,3.69-2.58,6.258-2.9,2.81,2.04,4.769.731,6.258-2.428a16.217,16.217,0,0,1,9.434,2.989A32.228,32.228,0,0,0,703.162,332.53Z" transform="translate(-594.496 -261.755)" fill="#3f3d56"/>
  <path id="Path_37" data-name="Path 37" d="M664.991,351.274a11.233,11.233,0,0,0-3.176,3.176,17.426,17.426,0,0,1-4.334-3.6,7.712,7.712,0,0,1-1.413-7.214l3.192-10.374a4.551,4.551,0,0,1,1.48-2.193l.421-.342,4.2,7.939-4.2,7.846C661.695,347.94,663.265,349.591,664.991,351.274Z" transform="translate(-574.82 -280.966)" fill="#3f3d56"/>
  <path id="Path_38" data-name="Path 38" d="M692.557,444.327h0a2.7,2.7,0,0,1-3.791-2.066l-.695-4.756L690.5,436.2l3.082,4.035a2.7,2.7,0,0,1-1.025,4.095Z" transform="translate(-600.939 -366.109)" fill="#ffb9b9"/>
  <path id="Path_39" data-name="Path 39" d="M691.218,251.7l-.893.027-2.477-3.509a13.225,13.225,0,0,0-7.977,3.82l-.223-1.488a5.609,5.609,0,0,1,4.414-6.326h0a5.609,5.609,0,0,1,6.663,4.56Z" transform="translate(-594.088 -211.045)" fill="#2f2e41"/>
  <path id="Path_40" data-name="Path 40" d="M686.81,435.04h0a2.7,2.7,0,0,1,2.066-3.791l4.756-.695,1.308,2.428-4.035,3.082a2.7,2.7,0,0,1-4.095-1.025Z" transform="translate(-599.724 -361.554)" fill="#ffb9b9"/>
  <path id="Path_41" data-name="Path 41" d="M736.537,342.3a53.111,53.111,0,0,0-14.636,3.764,7.154,7.154,0,0,0-1.588-4.2c4.7-1.237,8.959-2.689,11.582-4.95l-1.588-11.956,3.456-3.923.6.311a3.98,3.98,0,0,1,2.018,2.533,48.574,48.574,0,0,1,1.662,16.232A2.018,2.018,0,0,1,736.537,342.3Z" transform="translate(-626.966 -273.142)" fill="#3f3d56"/>
  <path id="Path_42" data-name="Path 42" d="M277.307,725.856a11.075,11.075,0,0,1-12.624,0,.856.856,0,0,1-.4-.789l1.313-17.069h10.62l1.5,17.063A.856.856,0,0,1,277.307,725.856Z" transform="translate(-258.826 -585.519)" fill="#3f3d56"/>
  <ellipse id="Ellipse_13" data-name="Ellipse 13" cx="5.359" cy="1.931" rx="5.359" ry="1.931" transform="translate(6.667 120.737)" fill="#3f3d56"/>
  <path id="Path_43" data-name="Path 43" d="M286.222,692.674q-4.189,2.947-8.11,0v-3.089h8.11Z" transform="translate(-269.996 -570.658)" fill="#f15d90"/>
  <ellipse id="Ellipse_14" data-name="Ellipse 14" cx="4.055" cy="1.545" rx="4.055" ry="1.545" transform="translate(8.117 117.382)" fill="#f15d90"/>
  <ellipse id="Ellipse_15" data-name="Ellipse 15" cx="0.386" cy="0.193" rx="0.386" ry="0.193" transform="translate(11.979 118.54)" fill="#e6e6e6"/>
  <ellipse id="Ellipse_16" data-name="Ellipse 16" cx="0.386" cy="0.193" rx="0.386" ry="0.193" transform="translate(13.802 118.54)" fill="#e6e6e6"/>
  <ellipse id="Ellipse_17" data-name="Ellipse 17" cx="0.386" cy="0.193" rx="0.386" ry="0.193" transform="translate(12.89 118.996)" fill="#e6e6e6"/>
  <ellipse id="Ellipse_18" data-name="Ellipse 18" cx="0.386" cy="0.193" rx="0.386" ry="0.193" transform="translate(9.243 118.996)" fill="#e6e6e6"/>
  <ellipse id="Ellipse_19" data-name="Ellipse 19" cx="0.386" cy="0.193" rx="0.386" ry="0.193" transform="translate(10.155 118.54)" fill="#e6e6e6"/>
  <ellipse id="Ellipse_20" data-name="Ellipse 20" cx="0.386" cy="0.193" rx="0.386" ry="0.193" transform="translate(11.067 119.224)" fill="#e6e6e6"/>
  <path id="Path_44" data-name="Path 44" d="M882.307,725.856a11.075,11.075,0,0,1-12.624,0,.856.856,0,0,1-.405-.789l1.313-17.069h10.62l1.5,17.063A.856.856,0,0,1,882.307,725.856Z" transform="translate(-747.218 -585.519)" fill="#3f3d56"/>
  <ellipse id="Ellipse_21" data-name="Ellipse 21" cx="5.359" cy="1.931" rx="5.359" ry="1.931" transform="translate(123.276 120.737)" fill="#3f3d56"/>
  <path id="Path_45" data-name="Path 45" d="M891.222,692.674q-4.189,2.947-8.11,0v-3.089h8.11Z" transform="translate(-758.387 -570.658)" fill="#f15d90"/>
  <ellipse id="Ellipse_22" data-name="Ellipse 22" cx="4.055" cy="1.545" rx="4.055" ry="1.545" transform="translate(124.725 117.382)" fill="#f15d90"/>
  <ellipse id="Ellipse_23" data-name="Ellipse 23" cx="0.386" cy="0.193" rx="0.386" ry="0.193" transform="translate(128.587 118.54)" fill="#e6e6e6"/>
  <ellipse id="Ellipse_24" data-name="Ellipse 24" cx="0.386" cy="0.193" rx="0.386" ry="0.193" transform="translate(130.411 118.54)" fill="#e6e6e6"/>
  <ellipse id="Ellipse_25" data-name="Ellipse 25" cx="0.386" cy="0.193" rx="0.386" ry="0.193" transform="translate(129.499 118.996)" fill="#e6e6e6"/>
  <ellipse id="Ellipse_26" data-name="Ellipse 26" cx="0.386" cy="0.193" rx="0.386" ry="0.193" transform="translate(125.852 118.996)" fill="#e6e6e6"/>
  <ellipse id="Ellipse_27" data-name="Ellipse 27" cx="0.386" cy="0.193" rx="0.386" ry="0.193" transform="translate(126.763 118.54)" fill="#e6e6e6"/>
  <ellipse id="Ellipse_28" data-name="Ellipse 28" cx="0.386" cy="0.193" rx="0.386" ry="0.193" transform="translate(127.675 119.224)" fill="#e6e6e6"/>
</svg>
