<svg xmlns="http://www.w3.org/2000/svg" width="381" height="159" viewBox="0 0 381 159">
  <g id="Group_132" data-name="Group 132" transform="translate(-224 -540)">
    <g id="Group_46" data-name="Group 46" transform="translate(133 488)">
      <text id="CookMe" transform="translate(91 179)" fill="#f04c84" font-size="127" font-family="Lobster-Regular, Lobster" opacity="0.9"><tspan x="0" y="0">Cook</tspan><tspan y="0" fill="#fff">Me</tspan></text>
      <path id="Union_5" data-name="Union 5" d="M44.477,12.031c-1.9,1.576-12.515,9.677-24.926,5.237C5.839,12.363,0,4.758,0,4.758s9.389,2.066,16.89.457C22.655,3.976,25.969.387,30.922,0c9.115.681,12.593,3.436,13.555,4.412C45.438,3.436,48.917.681,58.032,0,62.984.387,66.3,3.976,72.064,5.214c7.5,1.61,16.89-.457,16.89-.457s-5.839,7.606-19.55,12.51a22.251,22.251,0,0,1-7.544,1.314C52.905,18.582,45.977,13.274,44.477,12.031Z" transform="translate(158.151 169.042)" fill="#dfdfdf"/>
    </g>
  </g>
</svg>
