<svg id="call-24px" xmlns="http://www.w3.org/2000/svg" width="40" height="40" viewBox="0 0 40 40">
  <path id="Path_174" data-name="Path 174" d="M0,0H40V40H0Z" fill="none"/>
  <path id="Path_175" data-name="Path 175" d="M29.71,22.44a17.968,17.968,0,0,1-5.543-.879,1.535,1.535,0,0,0-1.586.377L20.116,25.03A23.841,23.841,0,0,1,9.3,14.306L12.359,11.7a1.6,1.6,0,0,0,.377-1.6,17.512,17.512,0,0,1-.879-5.543A1.568,1.568,0,0,0,10.3,3H4.869C4.021,3,3,3.377,3,4.555a26.933,26.933,0,0,0,26.71,26.71,1.648,1.648,0,0,0,1.555-1.853V23.994A1.568,1.568,0,0,0,29.71,22.44Z" transform="translate(2.868 2.868)" fill="#f19721"/>
</svg>
