<svg xmlns="http://www.w3.org/2000/svg" xmlns:xlink="http://www.w3.org/1999/xlink" width="183.375" height="139" viewBox="0 0 183.375 139">
  <defs>
    <linearGradient id="linear-gradient" x1="0.5" y1="1" x2="0.5" gradientUnits="objectBoundingBox">
      <stop offset="0" stop-color="gray" stop-opacity="0.251"/>
      <stop offset="0.54" stop-color="gray" stop-opacity="0.122"/>
      <stop offset="1" stop-color="gray" stop-opacity="0.102"/>
    </linearGradient>
    <linearGradient id="linear-gradient-2" y1="1" y2="0" xlink:href="#linear-gradient"/>
    <linearGradient id="linear-gradient-3" x1="0" y1="0.5" x2="1" y2="0.5" xlink:href="#linear-gradient"/>
    <linearGradient id="linear-gradient-4" x1="2.581" y1="1" x2="2.581" y2="0" xlink:href="#linear-gradient"/>
    <linearGradient id="linear-gradient-5" y1="1" y2="0" xlink:href="#linear-gradient"/>
    <linearGradient id="linear-gradient-6" x1="-25.357" y1="1.001" x2="-25.357" y2="0" xlink:href="#linear-gradient"/>
  </defs>
  <g id="undraw_people_search_wctu" transform="translate(0 0.006)">
    <path id="Path_59" data-name="Path 59" d="M215.615,99.313c-6.447,8.846-4.319,21.474-.593,31.534,1.248,3.368,2.666,6.93,2.019,10.594-.79,4.479-4.506,7.835-8.367,9.663a22.172,22.172,0,0,1-21.653-1.4c-5.434-3.623-9.26-9.643-14.8-13.093-9.271-5.772-21.307-3.193-31.626,1.214-7.3,3.117-15.3,7.132-22.411,4.254-5.006-2.026-8.377-7.181-10.151-12.693-.856-2.661-1.456-5.55-3.162-7.633a11.671,11.671,0,0,0-3.733-2.823c-12.58-6.587-28.761-2.47-40.956-9.82-8.234-4.963-13.358-14.6-15.488-24.721s-1.6-20.815-.754-31.321c.6-7.466,1.556-15.445,6.045-21.312,4.748-6.2,12.7-8.669,19.82-7.7S83.3,28.983,88.883,33.7c6.981,5.885,13.4,13.274,22.085,15.509,5.913,1.522,12.2.445,18.343-.031,10.276-.794,20.515.12,30.692,1.153,9.742.988,19.552,2.091,28.779,5.331,6.529,2.292,11.705,6.625,17.852,9.586,4.007,1.93,8.415,2.378,12.186,4.871,4.654,3.071,8.86,8.512,7.494,15.041C225.025,91.367,219.04,94.618,215.615,99.313Z" transform="translate(-43.2 -23.86)" fill="#f15d90" opacity="0.1"/>
    <g id="Group_83" data-name="Group 83" transform="translate(130.056 58.917)" opacity="0.5">
      <path id="Path_60" data-name="Path 60" d="M898.19,490.661s.543-16.1,9.253-25.2a24.4,24.4,0,0,0,6.692-13.912,41.053,41.053,0,0,0,.2-7.5" transform="translate(-887.45 -433.777)" fill="none" stroke="#535461" stroke-miterlimit="10" stroke-width="2"/>
      <path id="Path_61" data-name="Path 61" d="M995.669,386.177c-.6,1.8-5.579,5.928-5.579,5.928s-1.526-6.292-.93-8.089a3.429,3.429,0,1,1,6.51,2.159Z" transform="translate(-963.323 -381.666)" fill="#f15d90"/>
      <path id="Path_62" data-name="Path 62" d="M1001.9,448.955c-1.482,1.186-7.9,1.947-7.9,1.947s2.141-6.111,3.623-7.3a3.429,3.429,0,1,1,4.282,5.349Z" transform="translate(-967.482 -432.702)" fill="#f15d90"/>
      <path id="Path_63" data-name="Path 63" d="M966.717,548.629c-1.874.277-7.807-2.305-7.807-2.305s4.93-4.2,6.8-4.473a3.429,3.429,0,0,1,1,6.785Z" transform="translate(-938.171 -515.441)" fill="#f15d90"/>
      <path id="Path_64" data-name="Path 64" d="M920.776,621.012c-1.8.59-8.086-.958-8.086-.958s4.152-4.968,5.951-5.558a3.429,3.429,0,1,1,2.141,6.516Z" transform="translate(-899.562 -576.011)" fill="#f15d90"/>
      <path id="Path_65" data-name="Path 65" d="M949.856,455.1c.874,1.68,6.457,4.968,6.457,4.968s.507-6.454-.367-8.135a3.429,3.429,0,1,0-6.083,3.165Z" transform="translate(-930.29 -438.818)" fill="#f15d90"/>
      <path id="Path_66" data-name="Path 66" d="M895.709,535.4c1.337,1.342,7.641,2.811,7.641,2.811s-1.448-6.31-2.783-7.653a3.429,3.429,0,1,0-4.858,4.84Z" transform="translate(-884.542 -505.201)" fill="#f15d90"/>
      <path id="Path_67" data-name="Path 67" d="M858.991,626.194c1.09,1.548,7.056,4.063,7.056,4.063s-.359-6.464-1.451-8.013A3.429,3.429,0,1,0,859,626.2Z" transform="translate(-854.132 -581.336)" fill="#f15d90"/>
      <path id="Path_68" data-name="Path 68" d="M869.43,557.332s-4.94-7.186-4.074-13.948a13.214,13.214,0,0,0-1.561-8.211,22.23,22.23,0,0,0-2.325-3.333" transform="translate(-856.777 -507.11)" fill="none" stroke="#535461" stroke-miterlimit="10" stroke-width="2"/>
      <path id="Path_69" data-name="Path 69" d="M846.271,499.454c.318.975-.522,4.377-.522,4.377s-2.689-2.249-3.007-3.223a1.856,1.856,0,0,1,3.529-1.153Z" transform="translate(-841.056 -478.989)" fill="#f15d90"/>
      <path id="Path_70" data-name="Path 70" d="M874.644,521.1c-.262.988-2.818,3.391-2.818,3.391s-1.034-3.35-.772-4.341a1.857,1.857,0,1,1,3.59.95Z" transform="translate(-864.747 -496.19)" fill="#f15d90"/>
      <path id="Path_71" data-name="Path 71" d="M889.593,573.1c-.726.723-4.143,1.505-4.143,1.505s.8-3.414,1.525-4.137a1.857,1.857,0,0,1,2.618,2.635Z" transform="translate(-876.808 -538.929)" fill="#f15d90"/>
      <path id="Path_72" data-name="Path 72" d="M894.837,619.871c-.594.835-3.837,2.18-3.837,2.18s.209-3.5.8-4.334a1.856,1.856,0,1,1,3.027,2.151Z" transform="translate(-881.444 -578.192)" fill="#f15d90"/>
      <path id="Path_73" data-name="Path 73" d="M848.558,544.126c.921.451,4.407.089,4.407.089s-1.856-2.974-2.776-3.424a1.856,1.856,0,1,0-1.63,3.335Z" transform="translate(-845.122 -514.429)" fill="#f15d90"/>
      <path id="Path_74" data-name="Path 74" d="M850.828,596.556c1.014.155,4.232-1.233,4.232-1.233s-2.661-2.282-3.674-2.431a1.856,1.856,0,0,0-.558,3.671Z" transform="translate(-846.569 -558.09)" fill="#f15d90"/>
      <path id="Path_75" data-name="Path 75" d="M864.319,647.995c.973.329,4.38-.494,4.38-.494s-2.236-2.7-3.209-3.023A1.857,1.857,0,1,0,864.319,648Z" transform="translate(-858.094 -601.119)" fill="#f15d90"/>
      <path id="Path_76" data-name="Path 76" d="M846.271,499.454c.318.975-.522,4.377-.522,4.377s-2.689-2.249-3.007-3.223a1.856,1.856,0,0,1,3.529-1.153Z" transform="translate(-841.056 -478.989)" fill="#fff" opacity="0.5"/>
      <path id="Path_77" data-name="Path 77" d="M874.644,521.1c-.262.988-2.818,3.391-2.818,3.391s-1.034-3.35-.772-4.341a1.857,1.857,0,1,1,3.59.95Z" transform="translate(-864.747 -496.19)" fill="#fff" opacity="0.5"/>
      <path id="Path_78" data-name="Path 78" d="M889.593,573.1c-.726.723-4.143,1.505-4.143,1.505s.8-3.414,1.525-4.137a1.857,1.857,0,0,1,2.618,2.635Z" transform="translate(-876.808 -538.929)" fill="#fff" opacity="0.5"/>
      <path id="Path_79" data-name="Path 79" d="M894.837,619.871c-.594.835-3.837,2.18-3.837,2.18s.209-3.5.8-4.334a1.856,1.856,0,1,1,3.027,2.151Z" transform="translate(-881.444 -578.192)" fill="#fff" opacity="0.5"/>
      <path id="Path_80" data-name="Path 80" d="M848.558,544.126c.921.451,4.407.089,4.407.089s-1.856-2.974-2.776-3.424a1.856,1.856,0,1,0-1.63,3.335Z" transform="translate(-845.122 -514.429)" fill="#fff" opacity="0.5"/>
      <path id="Path_81" data-name="Path 81" d="M850.828,596.556c1.014.155,4.232-1.233,4.232-1.233s-2.661-2.282-3.674-2.431a1.856,1.856,0,0,0-.558,3.671Z" transform="translate(-846.569 -558.09)" fill="#fff" opacity="0.5"/>
      <path id="Path_82" data-name="Path 82" d="M864.319,647.995c.973.329,4.38-.494,4.38-.494s-2.236-2.7-3.209-3.023A1.857,1.857,0,1,0,864.319,648Z" transform="translate(-858.094 -601.119)" fill="#fff" opacity="0.5"/>
      <path id="Path_83" data-name="Path 83" d="M793.283,672.409h14.052l3.514-21.429H789.77Z" transform="translate(-789.77 -602.701)" fill="#474059"/>
      <path id="Path_84" data-name="Path 84" d="M792.459,650.98,795.741,671h11.824l-.231,1.4H793.283L789.77,650.98Z" transform="translate(-789.77 -602.701)" opacity="0.1"/>
    </g>
    <rect id="Rectangle_52" data-name="Rectangle 52" width="103.087" height="124.379" transform="translate(33.146 6.465)" fill="url(#linear-gradient)"/>
    <rect id="Rectangle_53" data-name="Rectangle 53" width="100.452" height="121.201" transform="translate(34.463 8.056)" fill="#fff"/>
    <rect id="Rectangle_54" data-name="Rectangle 54" width="40.51" height="1.976" transform="translate(73.491 21.724)" fill="#c0bccf"/>
    <rect id="Rectangle_55" data-name="Rectangle 55" width="40.51" height="1.976" transform="translate(73.491 27.982)" fill="#c0bccf"/>
    <rect id="Rectangle_56" data-name="Rectangle 56" width="21.078" height="1.976" transform="translate(83.207 34.239)" fill="#f15d90"/>
    <rect id="Rectangle_57" data-name="Rectangle 57" width="40.51" height="1.976" transform="translate(73.491 61.411)" fill="#c0bccf" opacity="0.5"/>
    <rect id="Rectangle_58" data-name="Rectangle 58" width="40.51" height="1.976" transform="translate(73.491 67.668)" fill="#c0bccf" opacity="0.5"/>
    <rect id="Rectangle_59" data-name="Rectangle 59" width="21.078" height="1.976" transform="translate(83.207 73.926)" fill="#f15d90" opacity="0.5"/>
    <rect id="Rectangle_60" data-name="Rectangle 60" width="40.51" height="1.976" transform="translate(73.491 101.098)" fill="#c0bccf" opacity="0.5"/>
    <rect id="Rectangle_61" data-name="Rectangle 61" width="40.51" height="1.976" transform="translate(73.491 107.355)" fill="#c0bccf" opacity="0.5"/>
    <rect id="Rectangle_62" data-name="Rectangle 62" width="21.078" height="1.976" transform="translate(83.207 113.613)" fill="#f15d90" opacity="0.5"/>
    <g id="Group_84" data-name="Group 84" transform="translate(39.898 57.457)" opacity="0.5">
      <path id="Path_85" data-name="Path 85" d="M307.876,384a11.145,11.145,0,0,1-2.7,7.287c-.086.1-.175.2-.265.3q-.068.076-.138.148a10.987,10.987,0,0,1-1.2,1.085l-.03.021a10.945,10.945,0,0,1-2.124,1.3h0a11.033,11.033,0,0,1-1.192.478l-.15.048c-.092.031-.188.059-.282.086l-.038.012a11.252,11.252,0,0,1-6.184,0h-.016c-.165-.048-.329-.1-.481-.151l-.14-.049a10.861,10.861,0,0,1-1.548-.685l-.031-.016a11.239,11.239,0,0,1-2.193-1.553l-.054-.051a10.461,10.461,0,0,1-.957-.988c-.04-.044-.077-.091-.115-.137-.072-.086-.142-.175-.211-.263A11.2,11.2,0,1,1,307.876,384Z" transform="translate(-285.48 -372.798)" fill="#c0bccf"/>
      <path id="Path_86" data-name="Path 86" d="M316.756,400.287l-.85-.382a3.372,3.372,0,0,0,.016-.389,3.04,3.04,0,0,0,0-.329,7.425,7.425,0,0,0-1.026-2.413,6.852,6.852,0,0,1-.67-2.305,11.143,11.143,0,0,0-.362-2.941,5.307,5.307,0,0,0-1.5-1.928,7.623,7.623,0,0,0-2.412-1.53,4.267,4.267,0,0,0-2.874-.077,6.2,6.2,0,0,0-2.07,1.5,6.959,6.959,0,0,0-1.169,1.331,5.756,5.756,0,0,0-.659,2.012,30.771,30.771,0,0,0-.405,3.363,3.247,3.247,0,0,1-.968,2.584c-.392.282-.944.44-1.123.866a.886.886,0,0,0-.059.4,1.483,1.483,0,0,0,.025.341c.012.066.025.13.041.2a14.44,14.44,0,0,0-.58,1.759c-.12.445-.231.881-.329,1.3h.408l1.535.036h.021l1.647.038h.008l1.535.036h.038l.443.031h.145l6.137.142h.033l.408.01h.143l1.228.028h0l1.811.041h.013l1.364.033h.425l-.072-1.429C317.351,400.424,316.756,400.287,316.756,400.287Zm-6.895-.175a5.365,5.365,0,0,1-1.3,2.7l-1.306-1.779.048-.069,1.258,1.713a5.357,5.357,0,0,0,1.3-2.7,1.425,1.425,0,0,1,.1-.178l.03.092A1.746,1.746,0,0,0,309.861,400.112Zm2,4.756a.99.99,0,0,0-.012-.184c-.012-.061-.01-.115-.018-.175s-.015-.117-.023-.176-.02-.117-.031-.176-.023-.117-.036-.176a.275.275,0,0,0-.013-.059q-.027-.116-.059-.232c-.021-.077-.035-.125-.054-.186a.252.252,0,0,0-.026-.082c-.01-.026-.028-.089-.043-.133l-.03-.086c-.013-.038-.026-.077-.041-.115-.025-.069-.051-.137-.077-.206s-.054-.137-.082-.2c-.056-.138-.117-.275-.178-.413-.239-.534-.507-1.059-.754-1.579a8.389,8.389,0,0,1-.352-.837l-.031.041a1.748,1.748,0,0,0-.133.222,5.364,5.364,0,0,1-1.3,2.7l-1.306-1.779-1.143,1.647a1.332,1.332,0,0,0-.458.761c-.036.107-.071.226-.1.349-.023.084-.044.165-.064.259-.012.044-.021.089-.031.135l-.03.14v.021c-.02.1-.04.194-.058.295s-.04.216-.058.329q-.02.107-.035.212c-.023.137-.043.275-.063.413-.012.081-.023.165-.033.239l-.04.306c.084.252.178.494.275.748a1.176,1.176,0,0,1,.107.423,12,12,0,0,0,6.184,0,.057.057,0,0,1,0-.015,1.718,1.718,0,0,1-.04-.42h0a10.843,10.843,0,0,1,.165-1.179,4.031,4.031,0,0,0,.031-.58v-.069c0-.063-.007-.119-.008-.173Zm0,0a.99.99,0,0,0-.012-.184c-.012-.061-.01-.115-.018-.175s-.015-.117-.023-.176-.02-.117-.031-.176-.023-.117-.036-.176a.275.275,0,0,0-.013-.059q-.027-.116-.059-.232c-.021-.077-.035-.125-.054-.186a.252.252,0,0,0-.026-.082c-.01-.026-.028-.089-.043-.133l-.03-.086c-.013-.038-.026-.077-.041-.115-.025-.069-.051-.137-.077-.206s-.054-.137-.082-.2c-.056-.138-.117-.275-.178-.413-.239-.534-.507-1.059-.754-1.579a8.389,8.389,0,0,1-.352-.837l-.031.041a1.748,1.748,0,0,0-.133.222,5.364,5.364,0,0,1-1.3,2.7l-1.306-1.779-1.143,1.647a1.332,1.332,0,0,0-.458.761c-.036.107-.071.226-.1.349-.023.084-.044.165-.064.259-.012.044-.021.089-.031.135l-.03.14v.021c-.02.1-.04.194-.058.295s-.04.216-.058.329q-.02.107-.035.212c-.023.137-.043.275-.063.413-.012.081-.023.165-.033.239l-.04.306c.084.252.178.494.275.748a1.176,1.176,0,0,1,.107.423,12,12,0,0,0,6.184,0,.057.057,0,0,1,0-.015,1.718,1.718,0,0,1-.04-.42h0a10.843,10.843,0,0,1,.165-1.179,4.031,4.031,0,0,0,.031-.58v-.069c0-.063-.007-.119-.008-.173Zm0,0a.99.99,0,0,0-.012-.184c-.012-.061-.01-.115-.018-.175s-.015-.117-.023-.176-.02-.117-.031-.176-.023-.117-.036-.176a.275.275,0,0,0-.013-.059q-.027-.116-.059-.232c-.021-.077-.035-.125-.054-.186a.252.252,0,0,0-.026-.082c-.01-.026-.028-.089-.043-.133l-.03-.086c-.013-.038-.026-.077-.041-.115-.025-.069-.051-.137-.077-.206s-.054-.137-.082-.2c-.056-.138-.117-.275-.178-.413-.239-.534-.507-1.059-.754-1.579a8.389,8.389,0,0,1-.352-.837l-.031.041a1.748,1.748,0,0,0-.133.222,5.364,5.364,0,0,1-1.3,2.7l-1.306-1.779-1.143,1.647a1.332,1.332,0,0,0-.458.761c-.036.107-.071.226-.1.349-.023.084-.044.165-.064.259-.012.044-.021.089-.031.135l-.03.14v.021c-.02.1-.04.194-.058.295s-.04.216-.058.329q-.02.107-.035.212c-.023.137-.043.275-.063.413-.012.081-.023.165-.033.239l-.04.306c.084.252.178.494.275.748a1.176,1.176,0,0,1,.107.423,12,12,0,0,0,6.184,0,.057.057,0,0,1,0-.015,1.718,1.718,0,0,1-.04-.42h0a10.843,10.843,0,0,1,.165-1.179,4.031,4.031,0,0,0,.031-.58v-.069c0-.063-.007-.119-.008-.173Zm0,0a.99.99,0,0,0-.012-.184c-.012-.061-.01-.115-.018-.175s-.015-.117-.023-.176-.02-.117-.031-.176-.023-.117-.036-.176a.275.275,0,0,0-.013-.059q-.027-.116-.059-.232c-.021-.077-.035-.125-.054-.186a.252.252,0,0,0-.026-.082c-.01-.026-.028-.089-.043-.133l-.03-.086c-.013-.038-.026-.077-.041-.115-.025-.069-.051-.137-.077-.206s-.054-.137-.082-.2c-.056-.138-.117-.275-.178-.413-.239-.534-.507-1.059-.754-1.579a8.389,8.389,0,0,1-.352-.837l-.031.041a1.748,1.748,0,0,0-.133.222,5.364,5.364,0,0,1-1.3,2.7l-1.306-1.779-1.143,1.647a1.332,1.332,0,0,0-.458.761c-.036.107-.071.226-.1.349-.023.084-.044.165-.064.259-.012.044-.021.089-.031.135l-.03.14v.021c-.02.1-.04.194-.058.295s-.04.216-.058.329q-.02.107-.035.212c-.023.137-.043.275-.063.413-.012.081-.023.165-.033.239l-.04.306c.084.252.178.494.275.748a1.176,1.176,0,0,1,.107.423,12,12,0,0,0,6.184,0,.057.057,0,0,1,0-.015,1.718,1.718,0,0,1-.04-.42h0a10.843,10.843,0,0,1,.165-1.179,4.031,4.031,0,0,0,.031-.58v-.069c0-.063-.007-.119-.008-.173Z" transform="translate(-297.425 -385.311)" fill="url(#linear-gradient-2)"/>
      <rect id="Rectangle_63" data-name="Rectangle 63" width="7.575" height="5.105" transform="translate(6.916 8.071)" fill="#493545"/>
      <path id="Path_87" data-name="Path 87" d="M335.9,431.892l-3.17,4.466-3.313-.288s-4.323.287-1.441-3.025a7.109,7.109,0,0,0,1.935-3.867,2.994,2.994,0,0,0-.206-1.607l3.6-.431a2.687,2.687,0,0,0-.059,1.5C333.7,430.514,335.9,431.892,335.9,431.892Z" transform="translate(-320.15 -418.191)" fill="#c77485"/>
      <path id="Path_88" data-name="Path 88" d="M347.032,428.622a3.6,3.6,0,0,1-3.336.537,2.994,2.994,0,0,0-.206-1.607l3.6-.431A2.687,2.687,0,0,0,347.032,428.622Z" transform="translate(-333.937 -418.174)" opacity="0.1"/>
      <circle id="Ellipse_31" data-name="Ellipse 31" cx="3.601" cy="3.601" r="3.601" transform="translate(7.321 3.831)" fill="#c77485"/>
      <path id="Path_89" data-name="Path 89" d="M330.952,450.1l-.084-.329-.072-.29-.107-.428-.02-.079-.017-.066s.086-.259-.479-.175l-.105.018c-.089.018-.193.043-.311.076l-.107.033-.142.044h0a3.087,3.087,0,0,0-1.2.721,2.693,2.693,0,0,0-.4.484c-.012.016-.02.031-.03.044a1.556,1.556,0,0,0-.1.191,5.873,5.873,0,0,1-1.3,2.882l-1.266-1.829-.025-.036-.3-.438-.107-.142-.036-.049-.659-.884-.165-.221-.054-.074-.081-.107-.189-.252-.741.433-.988.576-.576,3.746v.1l.018.31.12,2.035v.028l-.211.843.031.016a10.865,10.865,0,0,0,1.548.685l.14.049c.165.054.319.1.481.151a.581.581,0,0,1,.013.074v-.071a11.252,11.252,0,0,0,6.184,0l.038-.012c.094-.026.189-.054.282-.086l.15-.048a11.035,11.035,0,0,0,1.192-.478l.138-2.948.1-2.126v-.122Z" transform="translate(-315.335 -436.216)" opacity="0.1"/>
      <path id="Path_90" data-name="Path 90" d="M329.95,456.317a1.136,1.136,0,0,0-.012-.2c-.012-.066-.01-.124-.018-.186s-.015-.125-.023-.188-.02-.125-.031-.188-.023-.125-.036-.188a.284.284,0,0,0-.013-.063c-.018-.082-.038-.165-.059-.249s-.035-.133-.054-.2a.281.281,0,0,0-.026-.087c-.01-.028-.028-.1-.043-.143l-.03-.092c-.013-.041-.026-.082-.041-.123-.025-.074-.051-.147-.077-.221s-.054-.147-.082-.219c-.056-.148-.117-.295-.178-.441-.239-.57-.507-1.131-.754-1.688a9.339,9.339,0,0,1-.352-.894l-.031.044a1.906,1.906,0,0,0-.133.237,5.882,5.882,0,0,1-1.3,2.882l-1.306-1.9-1.143,1.757a1.435,1.435,0,0,0-.458.814c-.036.115-.071.24-.1.374-.023.089-.044.183-.064.277-.012.048-.021.1-.031.145l-.03.15v.023c-.02.1-.04.207-.058.315s-.04.231-.058.347q-.02.114-.035.227c-.023.147-.043.295-.063.441-.012.086-.023.165-.033.255l-.04.329c.084.27.178.537.275.8a1.328,1.328,0,0,1,.107.453,11.252,11.252,0,0,0,6.184,0,.065.065,0,0,1,0-.016,1.961,1.961,0,0,1-.04-.45h0a12.343,12.343,0,0,1,.165-1.26,4.613,4.613,0,0,0,.031-.619V456.5C329.954,456.436,329.952,456.377,329.95,456.317Zm0,0a1.136,1.136,0,0,0-.012-.2c-.012-.066-.01-.124-.018-.186s-.015-.125-.023-.188-.02-.125-.031-.188-.023-.125-.036-.188a.284.284,0,0,0-.013-.063c-.018-.082-.038-.165-.059-.249s-.035-.133-.054-.2a.281.281,0,0,0-.026-.087c-.01-.028-.028-.1-.043-.143l-.03-.092c-.013-.041-.026-.082-.041-.123-.025-.074-.051-.147-.077-.221s-.054-.147-.082-.219c-.056-.148-.117-.295-.178-.441-.239-.57-.507-1.131-.754-1.688a9.339,9.339,0,0,1-.352-.894l-.031.044a1.906,1.906,0,0,0-.133.237,5.882,5.882,0,0,1-1.3,2.882l-1.306-1.9-1.143,1.757a1.435,1.435,0,0,0-.458.814c-.036.115-.071.24-.1.374-.023.089-.044.183-.064.277-.012.048-.021.1-.031.145l-.03.15v.023c-.02.1-.04.207-.058.315s-.04.231-.058.347q-.02.114-.035.227c-.023.147-.043.295-.063.441-.012.086-.023.165-.033.255l-.04.329c.084.27.178.537.275.8a1.328,1.328,0,0,1,.107.453,11.252,11.252,0,0,0,6.184,0,.065.065,0,0,1,0-.016,1.961,1.961,0,0,1-.04-.45h0a12.343,12.343,0,0,1,.165-1.26,4.613,4.613,0,0,0,.031-.619V456.5C329.954,456.436,329.952,456.377,329.95,456.317Zm0,0a1.136,1.136,0,0,0-.012-.2c-.012-.066-.01-.124-.018-.186s-.015-.125-.023-.188-.02-.125-.031-.188-.023-.125-.036-.188a.284.284,0,0,0-.013-.063c-.018-.082-.038-.165-.059-.249s-.035-.133-.054-.2a.281.281,0,0,0-.026-.087c-.01-.028-.028-.1-.043-.143l-.03-.092c-.013-.041-.026-.082-.041-.123-.025-.074-.051-.147-.077-.221s-.054-.147-.082-.219c-.056-.148-.117-.295-.178-.441-.239-.57-.507-1.131-.754-1.688a9.339,9.339,0,0,1-.352-.894l-.031.044a1.906,1.906,0,0,0-.133.237,5.882,5.882,0,0,1-1.3,2.882l-1.306-1.9-1.143,1.757a1.435,1.435,0,0,0-.458.814c-.036.115-.071.24-.1.374-.023.089-.044.183-.064.277-.012.048-.021.1-.031.145l-.03.15v.023c-.02.1-.04.207-.058.315s-.04.231-.058.347q-.02.114-.035.227c-.023.147-.043.295-.063.441-.012.086-.023.165-.033.255l-.04.329c.084.27.178.537.275.8a1.328,1.328,0,0,1,.107.453,11.252,11.252,0,0,0,6.184,0,.065.065,0,0,1,0-.016,1.961,1.961,0,0,1-.04-.45h0a12.343,12.343,0,0,1,.165-1.26,4.613,4.613,0,0,0,.031-.619V456.5C329.954,456.436,329.952,456.377,329.95,456.317Zm1.746-3.091-.588-2.347-.1-.4-.028-.11h0l-.143-.573a.12.12,0,0,0,0-.015h0a.132.132,0,0,0-.012-.074c-.021-.043-.076-.087-.2-.1a1.012,1.012,0,0,0-.145,0h0a2.511,2.511,0,0,0-.423.079c-.068.018-.14.038-.217.063l-.142.044h-.013a3.143,3.143,0,0,0-1.038.576,2.8,2.8,0,0,0-.527.583l-.031.044a1.9,1.9,0,0,0-.133.237,5.882,5.882,0,0,1-1.3,2.882l-1.306-1.9-.074-.107-.013-.018-.189-.278-.143-.191-.038-.049-.675-.9h0l-.214-.291v-.01l-.074-.1-.142-.188-.494.288-1.235.72-.57,3.707v.04l.016.27.122,2.063v.117l-.186.743a10.863,10.863,0,0,0,1.548.685l.14.049c.165.054.319.1.481.151a.586.586,0,0,1,.013.074v-.071a11.252,11.252,0,0,0,6.184,0l.038-.012c.094-.026.189-.054.282-.086l.15-.048a11.042,11.042,0,0,0,1.192-.478h0l.137-2.944.1-2.1Zm-8.1,5.686a.581.581,0,0,1,.013.074v-.071Zm6.353-2.6a1.136,1.136,0,0,0-.012-.2c-.012-.066-.01-.124-.018-.186s-.015-.125-.023-.188-.02-.125-.031-.188-.023-.125-.036-.188a.284.284,0,0,0-.013-.063c-.018-.082-.038-.165-.059-.249s-.035-.133-.054-.2a.281.281,0,0,0-.026-.087c-.01-.028-.028-.1-.043-.143l-.03-.092c-.013-.041-.026-.082-.041-.123-.025-.074-.051-.147-.077-.221s-.054-.147-.082-.219c-.056-.148-.117-.295-.178-.441-.239-.57-.507-1.131-.754-1.688a9.339,9.339,0,0,1-.352-.894l-.031.044a1.906,1.906,0,0,0-.133.237,5.882,5.882,0,0,1-1.3,2.882l-1.306-1.9-1.143,1.757a1.435,1.435,0,0,0-.458.814c-.036.115-.071.24-.1.374-.023.089-.044.183-.064.277-.012.048-.021.1-.031.145l-.03.15v.023c-.02.1-.04.207-.058.315s-.04.231-.058.347q-.02.114-.035.227c-.023.147-.043.295-.063.441-.012.086-.023.165-.033.255l-.04.329c.084.27.178.537.275.8a1.328,1.328,0,0,1,.107.453,11.252,11.252,0,0,0,6.184,0,.065.065,0,0,1,0-.016,1.961,1.961,0,0,1-.04-.45h0a12.343,12.343,0,0,1,.165-1.26,4.613,4.613,0,0,0,.031-.619V456.5C329.954,456.436,329.952,456.377,329.95,456.317Zm0,0a1.136,1.136,0,0,0-.012-.2c-.012-.066-.01-.124-.018-.186s-.015-.125-.023-.188-.02-.125-.031-.188-.023-.125-.036-.188a.284.284,0,0,0-.013-.063c-.018-.082-.038-.165-.059-.249s-.035-.133-.054-.2a.281.281,0,0,0-.026-.087c-.01-.028-.028-.1-.043-.143l-.03-.092c-.013-.041-.026-.082-.041-.123-.025-.074-.051-.147-.077-.221s-.054-.147-.082-.219c-.056-.148-.117-.295-.178-.441-.239-.57-.507-1.131-.754-1.688a9.339,9.339,0,0,1-.352-.894l-.031.044a1.906,1.906,0,0,0-.133.237,5.882,5.882,0,0,1-1.3,2.882l-1.306-1.9-1.143,1.757a1.435,1.435,0,0,0-.458.814c-.036.115-.071.24-.1.374-.023.089-.044.183-.064.277-.012.048-.021.1-.031.145l-.03.15v.023c-.02.1-.04.207-.058.315s-.04.231-.058.347q-.02.114-.035.227c-.023.147-.043.295-.063.441-.012.086-.023.165-.033.255l-.04.329c.084.27.178.537.275.8a1.328,1.328,0,0,1,.107.453,11.252,11.252,0,0,0,6.184,0,.065.065,0,0,1,0-.016,1.961,1.961,0,0,1-.04-.45h0a12.343,12.343,0,0,1,.165-1.26,4.613,4.613,0,0,0,.031-.619V456.5C329.954,456.436,329.952,456.377,329.95,456.317Zm0,0a1.136,1.136,0,0,0-.012-.2c-.012-.066-.01-.124-.018-.186s-.015-.125-.023-.188-.02-.125-.031-.188-.023-.125-.036-.188a.284.284,0,0,0-.013-.063c-.018-.082-.038-.165-.059-.249s-.035-.133-.054-.2a.281.281,0,0,0-.026-.087c-.01-.028-.028-.1-.043-.143l-.03-.092c-.013-.041-.026-.082-.041-.123-.025-.074-.051-.147-.077-.221s-.054-.147-.082-.219c-.056-.148-.117-.295-.178-.441-.239-.57-.507-1.131-.754-1.688a9.339,9.339,0,0,1-.352-.894l-.031.044a1.906,1.906,0,0,0-.133.237,5.882,5.882,0,0,1-1.3,2.882l-1.306-1.9-1.143,1.757a1.435,1.435,0,0,0-.458.814c-.036.115-.071.24-.1.374-.023.089-.044.183-.064.277-.012.048-.021.1-.031.145l-.03.15v.023c-.02.1-.04.207-.058.315s-.04.231-.058.347q-.02.114-.035.227c-.023.147-.043.295-.063.441-.012.086-.023.165-.033.255l-.04.329c.084.27.178.537.275.8a1.328,1.328,0,0,1,.107.453,11.252,11.252,0,0,0,6.184,0,.065.065,0,0,1,0-.016,1.961,1.961,0,0,1-.04-.45h0a12.343,12.343,0,0,1,.165-1.26,4.613,4.613,0,0,0,.031-.619V456.5C329.954,456.436,329.952,456.377,329.95,456.317Zm0,0a1.136,1.136,0,0,0-.012-.2c-.012-.066-.01-.124-.018-.186s-.015-.125-.023-.188-.02-.125-.031-.188-.023-.125-.036-.188a.284.284,0,0,0-.013-.063c-.018-.082-.038-.165-.059-.249s-.035-.133-.054-.2a.281.281,0,0,0-.026-.087c-.01-.028-.028-.1-.043-.143l-.03-.092c-.013-.041-.026-.082-.041-.123-.025-.074-.051-.147-.077-.221s-.054-.147-.082-.219c-.056-.148-.117-.295-.178-.441-.239-.57-.507-1.131-.754-1.688a9.339,9.339,0,0,1-.352-.894l-.031.044a1.906,1.906,0,0,0-.133.237,5.882,5.882,0,0,1-1.3,2.882l-1.306-1.9-1.143,1.757a1.435,1.435,0,0,0-.458.814c-.036.115-.071.24-.1.374-.023.089-.044.183-.064.277-.012.048-.021.1-.031.145l-.03.15v.023c-.02.1-.04.207-.058.315s-.04.231-.058.347q-.02.114-.035.227c-.023.147-.043.295-.063.441-.012.086-.023.165-.033.255l-.04.329c.084.27.178.537.275.8a1.328,1.328,0,0,1,.107.453,11.252,11.252,0,0,0,6.184,0,.065.065,0,0,1,0-.016,1.961,1.961,0,0,1-.04-.45h0a12.343,12.343,0,0,1,.165-1.26,4.613,4.613,0,0,0,.031-.619V456.5C329.954,456.436,329.952,456.377,329.95,456.317Zm0,0a1.136,1.136,0,0,0-.012-.2c-.012-.066-.01-.124-.018-.186s-.015-.125-.023-.188-.02-.125-.031-.188-.023-.125-.036-.188a.284.284,0,0,0-.013-.063c-.018-.082-.038-.165-.059-.249s-.035-.133-.054-.2a.281.281,0,0,0-.026-.087c-.01-.028-.028-.1-.043-.143l-.03-.092c-.013-.041-.026-.082-.041-.123-.025-.074-.051-.147-.077-.221s-.054-.147-.082-.219c-.056-.148-.117-.295-.178-.441-.239-.57-.507-1.131-.754-1.688a9.339,9.339,0,0,1-.352-.894l-.031.044a1.906,1.906,0,0,0-.133.237,5.882,5.882,0,0,1-1.3,2.882l-1.306-1.9-1.143,1.757a1.435,1.435,0,0,0-.458.814c-.036.115-.071.24-.1.374-.023.089-.044.183-.064.277-.012.048-.021.1-.031.145l-.03.15v.023c-.02.1-.04.207-.058.315s-.04.231-.058.347q-.02.114-.035.227c-.023.147-.043.295-.063.441-.012.086-.023.165-.033.255l-.04.329c.084.27.178.537.275.8a1.328,1.328,0,0,1,.107.453,11.252,11.252,0,0,0,6.184,0,.065.065,0,0,1,0-.016,1.961,1.961,0,0,1-.04-.45h0a12.343,12.343,0,0,1,.165-1.26,4.613,4.613,0,0,0,.031-.619V456.5C329.954,456.436,329.952,456.377,329.95,456.317Zm0,0a1.136,1.136,0,0,0-.012-.2c-.012-.066-.01-.124-.018-.186s-.015-.125-.023-.188-.02-.125-.031-.188-.023-.125-.036-.188a.284.284,0,0,0-.013-.063c-.018-.082-.038-.165-.059-.249s-.035-.133-.054-.2a.281.281,0,0,0-.026-.087c-.01-.028-.028-.1-.043-.143l-.03-.092c-.013-.041-.026-.082-.041-.123-.025-.074-.051-.147-.077-.221s-.054-.147-.082-.219c-.056-.148-.117-.295-.178-.441-.239-.57-.507-1.131-.754-1.688a9.339,9.339,0,0,1-.352-.894l-.031.044a1.906,1.906,0,0,0-.133.237,5.882,5.882,0,0,1-1.3,2.882l-1.306-1.9-1.143,1.757a1.435,1.435,0,0,0-.458.814c-.036.115-.071.24-.1.374-.023.089-.044.183-.064.277-.012.048-.021.1-.031.145l-.03.15v.023c-.02.1-.04.207-.058.315s-.04.231-.058.347q-.02.114-.035.227c-.023.147-.043.295-.063.441-.012.086-.023.165-.033.255l-.04.329c.084.27.178.537.275.8a1.328,1.328,0,0,1,.107.453,11.252,11.252,0,0,0,6.184,0,.065.065,0,0,1,0-.016,1.961,1.961,0,0,1-.04-.45h0a12.343,12.343,0,0,1,.165-1.26,4.613,4.613,0,0,0,.031-.619V456.5C329.954,456.436,329.952,456.377,329.95,456.317Zm0,0a1.136,1.136,0,0,0-.012-.2c-.012-.066-.01-.124-.018-.186s-.015-.125-.023-.188-.02-.125-.031-.188-.023-.125-.036-.188a.284.284,0,0,0-.013-.063c-.018-.082-.038-.165-.059-.249s-.035-.133-.054-.2a.281.281,0,0,0-.026-.087c-.01-.028-.028-.1-.043-.143l-.03-.092c-.013-.041-.026-.082-.041-.123-.025-.074-.051-.147-.077-.221s-.054-.147-.082-.219c-.056-.148-.117-.295-.178-.441-.239-.57-.507-1.131-.754-1.688a9.339,9.339,0,0,1-.352-.894l-.031.044a1.906,1.906,0,0,0-.133.237,5.882,5.882,0,0,1-1.3,2.882l-1.306-1.9-1.143,1.757a1.435,1.435,0,0,0-.458.814c-.036.115-.071.24-.1.374-.023.089-.044.183-.064.277-.012.048-.021.1-.031.145l-.03.15v.023c-.02.1-.04.207-.058.315s-.04.231-.058.347q-.02.114-.035.227c-.023.147-.043.295-.063.441-.012.086-.023.165-.033.255l-.04.329c.084.27.178.537.275.8a1.328,1.328,0,0,1,.107.453,11.252,11.252,0,0,0,6.184,0,.065.065,0,0,1,0-.016,1.961,1.961,0,0,1-.04-.45h0a12.343,12.343,0,0,1,.165-1.26,4.613,4.613,0,0,0,.031-.619V456.5C329.954,456.436,329.952,456.377,329.95,456.317Zm0,0a1.136,1.136,0,0,0-.012-.2c-.012-.066-.01-.124-.018-.186s-.015-.125-.023-.188-.02-.125-.031-.188-.023-.125-.036-.188a.284.284,0,0,0-.013-.063c-.018-.082-.038-.165-.059-.249s-.035-.133-.054-.2a.281.281,0,0,0-.026-.087c-.01-.028-.028-.1-.043-.143l-.03-.092c-.013-.041-.026-.082-.041-.123-.025-.074-.051-.147-.077-.221s-.054-.147-.082-.219c-.056-.148-.117-.295-.178-.441-.239-.57-.507-1.131-.754-1.688a9.339,9.339,0,0,1-.352-.894l-.031.044a1.906,1.906,0,0,0-.133.237,5.882,5.882,0,0,1-1.3,2.882l-1.306-1.9-1.143,1.757a1.435,1.435,0,0,0-.458.814c-.036.115-.071.24-.1.374-.023.089-.044.183-.064.277-.012.048-.021.1-.031.145l-.03.15v.023c-.02.1-.04.207-.058.315s-.04.231-.058.347q-.02.114-.035.227c-.023.147-.043.295-.063.441-.012.086-.023.165-.033.255l-.04.329c.084.27.178.537.275.8a1.328,1.328,0,0,1,.107.453,11.252,11.252,0,0,0,6.184,0,.065.065,0,0,1,0-.016,1.961,1.961,0,0,1-.04-.45h0a12.343,12.343,0,0,1,.165-1.26,4.613,4.613,0,0,0,.031-.619V456.5C329.954,456.436,329.952,456.377,329.95,456.317Z" transform="translate(-315.518 -436.956)" fill="#fff"/>
      <path id="Path_91" data-name="Path 91" d="M308.9,452.315l-.11-.015a4.014,4.014,0,0,1-.494-.1l-.061-.016c-.4-.114-.841-.318-.94-.677a.641.641,0,0,1,.01-.351,3.008,3.008,0,0,1,.224-.566v-.01a.79.79,0,0,1,.041-.074,1.647,1.647,0,0,1,.594-.647l-.2.031-1.673.272-2.594.418s-.461-.092-1.089,1.637a.268.268,0,0,1-.021.064c-.151.423-.311.952-.476,1.612-.114.458-.217.907-.313,1.344-.028.132-.056.262-.082.39a10.46,10.46,0,0,0,.957.988l.054.051a11.242,11.242,0,0,0,2.194,1.553l.031.016a10.857,10.857,0,0,0,1.548.685l.14.049c.03-.3.063-.642.1-.988a.281.281,0,0,1,.013-.1l.039-.329c.01-.084.021-.165.033-.255.02-.147.04-.295.063-.441q.015-.114.035-.227c.018-.117.038-.234.058-.348s.038-.212.058-.315v-.023l.03-.15c.01-.049.02-.1.031-.145.02-.094.041-.188.064-.277.033-.133.068-.259.1-.374a1.407,1.407,0,0,1,.458-.813l1.143-1.757.048-.074.021-.033Z" transform="translate(-299.046 -437.17)" opacity="0.1"/>
      <path id="Path_92" data-name="Path 92" d="M308.22,452.335l-1.214,1.864a1.392,1.392,0,0,0-.45.789c-.038.122-.076.255-.112.4a19.7,19.7,0,0,0-.372,2.156.256.256,0,0,1-.013.1c-.056.458-.1.907-.14,1.3a10.853,10.853,0,0,1-1.548-.685l-.031-.016a11.24,11.24,0,0,1-2.193-1.553l-.054-.051a10.457,10.457,0,0,1-.957-.988c-.04-.044-.077-.091-.115-.137.018-.086.036-.165.056-.257.094-.436.2-.884.311-1.34a16.239,16.239,0,0,1,.56-1.844.508.508,0,0,1,.021-.053c.583-1.5,1-1.416,1-1.416l2.739-.441,1.729-.28-.054.031a1.754,1.754,0,0,0-.476.507l-.048.081c-.02.031-.038.066-.058.1a2.919,2.919,0,0,0-.227.576.606.606,0,0,0,.04.471,1.569,1.569,0,0,0,1.016.59l.064.016A4.124,4.124,0,0,0,308.22,452.335Z" transform="translate(-298.461 -437.186)" fill="#444176"/>
      <path id="Path_93" data-name="Path 93" d="M376.618,453.533l-.068-1.462c.288-2.305-.288-2.449-.288-2.449l-.685-.329h-.018l-2.755-1.336-.107-.053-.033-.015h0l-.359-.175h0l-.227-.11-.425-.206-.143-.069v.571c0,.165.015.357.028.581.03.563.084,1.317.181,2.207.054.515.123,1.079.209,1.683.051.357.087.713.11,1.061a18.665,18.665,0,0,1-.109,3.508l.15-.048a11.034,11.034,0,0,0,1.192-.478h0a10.945,10.945,0,0,0,2.124-1.3l.03-.021a10.984,10.984,0,0,0,1.2-1.085Z" transform="translate(-357.343 -435.056)" opacity="0.1"/>
      <path id="Path_94" data-name="Path 94" d="M377.482,453.491l-.068-1.466c.288-2.305-.288-2.449-.288-2.449l-.823-.4h-.016l-2.763-1.34-.127-.061-.025-.012-.2-.1-.268-.13-.53-.257v.234h0v.29c0,.165.015.38.03.626.028.525.077,1.214.165,2.032.059.562.133,1.186.231,1.858q.076.539.109,1.065a18.634,18.634,0,0,1-.1,3.458,11.034,11.034,0,0,0,1.192-.478h0a10.944,10.944,0,0,0,2.124-1.3l.03-.021a10.984,10.984,0,0,0,1.2-1.085q.072-.072.138-.148Z" transform="translate(-358.061 -435.015)" fill="#444176"/>
      <path id="Path_95" data-name="Path 95" d="M318.691,391.015a2.4,2.4,0,0,0-.226.823c-.176.644-.874,1.047-1.034,1.7-.094.379.015.781-.049,1.166-.117.71-.766,1.191-1.128,1.811a2.444,2.444,0,0,0-.15,2.124,3.4,3.4,0,0,1,.209.537,1.961,1.961,0,0,1-.051.823,2.61,2.61,0,0,0,.033,1.76,1.685,1.685,0,0,0,1.233.79,4.793,4.793,0,0,0,1.51-.069,4.369,4.369,0,0,0,1.578-.461l-1.783-4.3a3.592,3.592,0,0,1-.362-1.355,2.979,2.979,0,0,1,.222-1.011,8.761,8.761,0,0,1,1.482-2.561c.259.3.239.756.455,1.089a1.717,1.717,0,0,0,.734.548,24.325,24.325,0,0,0,2.6,1.087.341.341,0,0,1,.254.507l-.672,2.773a2.151,2.151,0,0,0,.1,1.811c.38.494,1.238.728,1.243,1.365a2.183,2.183,0,0,0,0,.3c.044.3.4.441.7.456a2.086,2.086,0,0,0,2.093-1.708c.165-1.09-.557-2.095-.858-3.157-.507-1.787.165-3.883-.832-5.452a4.641,4.641,0,0,0-3.674-1.777C321.341,390.516,319.381,390.1,318.691,391.015Z" transform="translate(-310.915 -387.533)" opacity="0.1"/>
      <path id="Path_96" data-name="Path 96" d="M318.691,390.015a2.394,2.394,0,0,0-.226.823c-.176.644-.874,1.047-1.034,1.7-.094.379.015.781-.049,1.166-.117.71-.766,1.191-1.128,1.811a2.443,2.443,0,0,0-.15,2.124,3.406,3.406,0,0,1,.209.537,1.961,1.961,0,0,1-.051.823,2.61,2.61,0,0,0,.033,1.76,1.685,1.685,0,0,0,1.233.79,4.793,4.793,0,0,0,1.51-.069,4.369,4.369,0,0,0,1.578-.461l-1.783-4.3a3.591,3.591,0,0,1-.362-1.355,2.979,2.979,0,0,1,.222-1.011,8.761,8.761,0,0,1,1.482-2.561c.259.3.239.756.455,1.089a1.718,1.718,0,0,0,.734.548,24.327,24.327,0,0,0,2.6,1.087.341.341,0,0,1,.254.507l-.672,2.773a2.151,2.151,0,0,0,.1,1.811c.38.494,1.238.728,1.243,1.365a2.183,2.183,0,0,0,0,.3c.044.3.4.441.7.456a2.086,2.086,0,0,0,2.093-1.708c.165-1.09-.557-2.095-.858-3.157-.507-1.787.165-3.883-.832-5.452a4.641,4.641,0,0,0-3.674-1.777C321.341,389.516,319.381,389.1,318.691,390.015Z" transform="translate(-310.915 -386.698)" fill="#493545"/>
    </g>
    <g id="Group_85" data-name="Group 85" transform="translate(39.898 97.143)" opacity="0.5">
      <path id="Path_97" data-name="Path 97" d="M307.876,625a11.145,11.145,0,0,1-2.7,7.287c-.086.1-.175.2-.265.3q-.068.076-.138.148a10.977,10.977,0,0,1-1.2,1.085l-.03.021a10.941,10.941,0,0,1-2.124,1.3h0a11.015,11.015,0,0,1-1.192.478l-.15.048c-.092.031-.188.059-.282.086l-.038.012a11.254,11.254,0,0,1-6.184,0h-.016c-.165-.048-.329-.1-.481-.151l-.14-.049a10.861,10.861,0,0,1-1.548-.685l-.031-.016a11.236,11.236,0,0,1-2.193-1.553l-.054-.051a10.458,10.458,0,0,1-.957-.988c-.04-.044-.077-.09-.115-.137-.072-.086-.142-.175-.211-.264A11.2,11.2,0,1,1,307.876,625Z" transform="translate(-285.48 -613.798)" fill="#c0bccf"/>
      <path id="Path_98" data-name="Path 98" d="M317.864,643.1l-.068-1.482c.288-2.343-.288-2.49-.288-2.49l-.823-.405-.016-.008-2.763-1.362-.127-.063-.016-.067s.054-.165-.219-.193a1,1,0,0,1-.069-.42,1.8,1.8,0,0,1,.453-.823,3.382,3.382,0,0,0,.542-2.4,5.643,5.643,0,0,0-.919-2.319l-.053-.077a2.788,2.788,0,0,0,.1-.728c0-1.9-1.917-3.432-4.282-3.432-2.141,0-3.924,1.266-4.234,2.918a1.5,1.5,0,0,0-.13.2c-.435.813.237,1.421.259,2.233a2.887,2.887,0,0,1-.659,1.513,1.514,1.514,0,0,0-.212,1.573c.1.155.252.272.343.433.318.562-.211,1.205-.4,1.821a1.745,1.745,0,0,0-.053.219l-1.271.208s-.42-.086-1,1.439a.513.513,0,0,0-.021.054,16.694,16.694,0,0,0-.56,1.876q-.17.7-.311,1.362c-.02.087-.038.175-.056.262.038.046.076.094.115.138a10.575,10.575,0,0,0,.957,1.008l.054.053a11.243,11.243,0,0,0,2.193,1.579l.031.017a10.788,10.788,0,0,0,1.548.7l.14.049c.165.056.319.105.481.155a.606.606,0,0,1,.013.076v-.072a11.077,11.077,0,0,0,6.184,0l.038-.012c.094-.026.189-.056.282-.087l.15-.048a11.1,11.1,0,0,0,3.317-1.811l.03-.021a11.05,11.05,0,0,0,1.2-1.1q.072-.072.138-.15Z" transform="translate(-298.444 -624.684)" fill="url(#linear-gradient-3)"/>
      <path id="Path_99" data-name="Path 99" d="M321.384,646.526a2.771,2.771,0,0,1-.659,1.482,1.467,1.467,0,0,0-.212,1.546c.1.151.252.268.343.427.318.552-.211,1.186-.4,1.792a2.249,2.249,0,0,0,.5,2.05,5.455,5.455,0,0,0,1.765,1.289,15.755,15.755,0,0,0,4.367,1.555,4.182,4.182,0,0,0,2.394-.107,2.546,2.546,0,0,0,1.438-2.8,15.92,15.92,0,0,0-1.153-2.381,1.115,1.115,0,0,1-.109-.515,1.74,1.74,0,0,1,.453-.807,3.294,3.294,0,0,0,.534-2.343,5.5,5.5,0,0,0-.919-2.282,2.5,2.5,0,0,0-.659-.725,2.891,2.891,0,0,0-1.232-.372c-1.788-.25-3.641-.524-5.444-.616a1.168,1.168,0,0,0-1.27.616C320.692,645.129,321.362,645.727,321.384,646.526Z" transform="translate(-314.62 -638.787)" fill="#444176"/>
      <path id="Path_100" data-name="Path 100" d="M340.115,672.513l-3.394,4.827-3.313-.288s-.109,1.153-1.441-3.025c-.744-2.337.769-1.525,1.067-2.172s.823-1.219.868-1.7a2.994,2.994,0,0,0-.206-1.607l3.6-.431a2.688,2.688,0,0,0-.059,1.5C337.689,671.5,340.115,672.513,340.115,672.513Z" transform="translate(-324.142 -659.174)" fill="#c77485"/>
      <ellipse id="Ellipse_32" data-name="Ellipse 32" cx="4.282" cy="3.376" rx="4.282" ry="3.376" transform="translate(6.587 2.472)" fill="#444176"/>
      <path id="Path_101" data-name="Path 101" d="M347.032,669.622a3.6,3.6,0,0,1-3.336.537,2.994,2.994,0,0,0-.206-1.607l3.6-.431A2.688,2.688,0,0,0,347.032,669.622Z" transform="translate(-333.937 -659.174)" opacity="0.1"/>
      <circle id="Ellipse_33" data-name="Ellipse 33" cx="3.601" cy="3.601" r="3.601" transform="translate(7.321 3.831)" fill="#c77485"/>
      <path id="Path_102" data-name="Path 102" d="M330.952,691.1l-.084-.329-.072-.29-.107-.428-.02-.079-.017-.066s.086-.259-.479-.175l-.105.018c-.089.018-.193.043-.311.076l-.107.033-.142.044h0a3.087,3.087,0,0,0-1.2.721,2.693,2.693,0,0,0-.4.484c-.012.016-.02.031-.03.044a1.561,1.561,0,0,0-.1.191,5.874,5.874,0,0,1-1.3,2.882l-1.266-1.83-.025-.036-.3-.438-.107-.142-.036-.049-.659-.884-.165-.221-.054-.074-.081-.107-.189-.252-.741.433-.988.576-.576,3.746v.1l.018.31.12,2.035v.028l-.211.843.031.016a10.858,10.858,0,0,0,1.548.685l.14.049c.165.054.319.1.481.152a.578.578,0,0,1,.013.074v-.071a11.253,11.253,0,0,0,6.184,0l.038-.011c.094-.026.189-.054.282-.086l.15-.048a11.029,11.029,0,0,0,1.192-.478l.138-2.948.1-2.126v-.122Z" transform="translate(-315.335 -677.216)" opacity="0.1"/>
      <path id="Path_103" data-name="Path 103" d="M329.95,697.318a1.137,1.137,0,0,0-.012-.2c-.012-.066-.01-.123-.018-.186s-.015-.125-.023-.188-.02-.125-.031-.188-.023-.125-.036-.188a.284.284,0,0,0-.013-.062c-.018-.082-.038-.165-.059-.249s-.035-.133-.054-.2a.282.282,0,0,0-.026-.087c-.01-.028-.028-.1-.043-.143l-.03-.092c-.013-.041-.026-.082-.041-.124-.025-.074-.051-.147-.077-.221s-.054-.146-.082-.219c-.056-.148-.117-.295-.178-.441-.239-.57-.507-1.131-.754-1.688a9.326,9.326,0,0,1-.352-.894l-.031.044a1.9,1.9,0,0,0-.133.237,5.881,5.881,0,0,1-1.3,2.882l-1.306-1.9-1.143,1.757a1.435,1.435,0,0,0-.458.813c-.036.115-.071.24-.1.374-.023.089-.044.183-.064.277-.012.048-.021.1-.031.145l-.03.15v.023c-.02.1-.04.207-.058.315s-.04.231-.058.347q-.02.114-.035.227c-.023.147-.043.295-.063.441-.012.086-.023.165-.033.255l-.04.329c.084.27.178.537.275.8a1.327,1.327,0,0,1,.107.453,11.254,11.254,0,0,0,6.184,0,.065.065,0,0,1,0-.016,1.961,1.961,0,0,1-.04-.45h0a12.348,12.348,0,0,1,.165-1.26,4.612,4.612,0,0,0,.031-.619V697.5C329.954,697.436,329.952,697.377,329.95,697.318Zm0,0a1.137,1.137,0,0,0-.012-.2c-.012-.066-.01-.123-.018-.186s-.015-.125-.023-.188-.02-.125-.031-.188-.023-.125-.036-.188a.284.284,0,0,0-.013-.062c-.018-.082-.038-.165-.059-.249s-.035-.133-.054-.2a.282.282,0,0,0-.026-.087c-.01-.028-.028-.1-.043-.143l-.03-.092c-.013-.041-.026-.082-.041-.124-.025-.074-.051-.147-.077-.221s-.054-.146-.082-.219c-.056-.148-.117-.295-.178-.441-.239-.57-.507-1.131-.754-1.688a9.326,9.326,0,0,1-.352-.894l-.031.044a1.9,1.9,0,0,0-.133.237,5.881,5.881,0,0,1-1.3,2.882l-1.306-1.9-1.143,1.757a1.435,1.435,0,0,0-.458.813c-.036.115-.071.24-.1.374-.023.089-.044.183-.064.277-.012.048-.021.1-.031.145l-.03.15v.023c-.02.1-.04.207-.058.315s-.04.231-.058.347q-.02.114-.035.227c-.023.147-.043.295-.063.441-.012.086-.023.165-.033.255l-.04.329c.084.27.178.537.275.8a1.327,1.327,0,0,1,.107.453,11.254,11.254,0,0,0,6.184,0,.065.065,0,0,1,0-.016,1.961,1.961,0,0,1-.04-.45h0a12.348,12.348,0,0,1,.165-1.26,4.612,4.612,0,0,0,.031-.619V697.5C329.954,697.436,329.952,697.377,329.95,697.318Zm0,0a1.137,1.137,0,0,0-.012-.2c-.012-.066-.01-.123-.018-.186s-.015-.125-.023-.188-.02-.125-.031-.188-.023-.125-.036-.188a.284.284,0,0,0-.013-.062c-.018-.082-.038-.165-.059-.249s-.035-.133-.054-.2a.282.282,0,0,0-.026-.087c-.01-.028-.028-.1-.043-.143l-.03-.092c-.013-.041-.026-.082-.041-.124-.025-.074-.051-.147-.077-.221s-.054-.146-.082-.219c-.056-.148-.117-.295-.178-.441-.239-.57-.507-1.131-.754-1.688a9.326,9.326,0,0,1-.352-.894l-.031.044a1.9,1.9,0,0,0-.133.237,5.881,5.881,0,0,1-1.3,2.882l-1.306-1.9-1.143,1.757a1.435,1.435,0,0,0-.458.813c-.036.115-.071.24-.1.374-.023.089-.044.183-.064.277-.012.048-.021.1-.031.145l-.03.15v.023c-.02.1-.04.207-.058.315s-.04.231-.058.347q-.02.114-.035.227c-.023.147-.043.295-.063.441-.012.086-.023.165-.033.255l-.04.329c.084.27.178.537.275.8a1.327,1.327,0,0,1,.107.453,11.254,11.254,0,0,0,6.184,0,.065.065,0,0,1,0-.016,1.961,1.961,0,0,1-.04-.45h0a12.348,12.348,0,0,1,.165-1.26,4.612,4.612,0,0,0,.031-.619V697.5C329.954,697.436,329.952,697.377,329.95,697.318Zm1.746-3.091-.588-2.347-.1-.4-.028-.11h0l-.143-.573a.12.12,0,0,0,0-.015h0a.132.132,0,0,0-.012-.074c-.021-.043-.076-.087-.2-.1a1.045,1.045,0,0,0-.145,0h0a2.511,2.511,0,0,0-.423.079c-.068.018-.14.038-.217.063l-.142.044h-.013a3.143,3.143,0,0,0-1.038.576,2.8,2.8,0,0,0-.527.583l-.031.044a1.9,1.9,0,0,0-.133.237,5.882,5.882,0,0,1-1.3,2.882l-1.306-1.9-.074-.107-.013-.018-.189-.278-.143-.191-.038-.049-.675-.9h0l-.214-.292v-.01l-.074-.1-.142-.188-.494.288-1.235.72-.57,3.707v.039l.016.27.122,2.063v.117l-.186.743a10.85,10.85,0,0,0,1.548.685l.14.049c.165.054.319.1.481.152a.58.58,0,0,1,.013.074v-.071a11.253,11.253,0,0,0,6.184,0l.038-.012c.094-.026.189-.054.282-.086l.15-.048a11.02,11.02,0,0,0,1.192-.478h0l.137-2.944.1-2.1Zm-8.1,5.686a.575.575,0,0,1,.013.074v-.071Zm6.353-2.6a1.137,1.137,0,0,0-.012-.2c-.012-.066-.01-.123-.018-.186s-.015-.125-.023-.188-.02-.125-.031-.188-.023-.125-.036-.188a.284.284,0,0,0-.013-.062c-.018-.082-.038-.165-.059-.249s-.035-.133-.054-.2a.282.282,0,0,0-.026-.087c-.01-.028-.028-.1-.043-.143l-.03-.092c-.013-.041-.026-.082-.041-.124-.025-.074-.051-.147-.077-.221s-.054-.146-.082-.219c-.056-.148-.117-.295-.178-.441-.239-.57-.507-1.131-.754-1.688a9.326,9.326,0,0,1-.352-.894l-.031.044a1.9,1.9,0,0,0-.133.237,5.881,5.881,0,0,1-1.3,2.882l-1.306-1.9-1.143,1.757a1.435,1.435,0,0,0-.458.813c-.036.115-.071.24-.1.374-.023.089-.044.183-.064.277-.012.048-.021.1-.031.145l-.03.15v.023c-.02.1-.04.207-.058.315s-.04.231-.058.347q-.02.114-.035.227c-.023.147-.043.295-.063.441-.012.086-.023.165-.033.255l-.04.329c.084.27.178.537.275.8a1.327,1.327,0,0,1,.107.453,11.254,11.254,0,0,0,6.184,0,.065.065,0,0,1,0-.016,1.961,1.961,0,0,1-.04-.45h0a12.348,12.348,0,0,1,.165-1.26,4.612,4.612,0,0,0,.031-.619V697.5C329.954,697.436,329.952,697.377,329.95,697.318Zm0,0a1.137,1.137,0,0,0-.012-.2c-.012-.066-.01-.123-.018-.186s-.015-.125-.023-.188-.02-.125-.031-.188-.023-.125-.036-.188a.284.284,0,0,0-.013-.062c-.018-.082-.038-.165-.059-.249s-.035-.133-.054-.2a.282.282,0,0,0-.026-.087c-.01-.028-.028-.1-.043-.143l-.03-.092c-.013-.041-.026-.082-.041-.124-.025-.074-.051-.147-.077-.221s-.054-.146-.082-.219c-.056-.148-.117-.295-.178-.441-.239-.57-.507-1.131-.754-1.688a9.326,9.326,0,0,1-.352-.894l-.031.044a1.9,1.9,0,0,0-.133.237,5.881,5.881,0,0,1-1.3,2.882l-1.306-1.9-1.143,1.757a1.435,1.435,0,0,0-.458.813c-.036.115-.071.24-.1.374-.023.089-.044.183-.064.277-.012.048-.021.1-.031.145l-.03.15v.023c-.02.1-.04.207-.058.315s-.04.231-.058.347q-.02.114-.035.227c-.023.147-.043.295-.063.441-.012.086-.023.165-.033.255l-.04.329c.084.27.178.537.275.8a1.327,1.327,0,0,1,.107.453,11.254,11.254,0,0,0,6.184,0,.065.065,0,0,1,0-.016,1.961,1.961,0,0,1-.04-.45h0a12.348,12.348,0,0,1,.165-1.26,4.612,4.612,0,0,0,.031-.619V697.5C329.954,697.436,329.952,697.377,329.95,697.318Zm0,0a1.137,1.137,0,0,0-.012-.2c-.012-.066-.01-.123-.018-.186s-.015-.125-.023-.188-.02-.125-.031-.188-.023-.125-.036-.188a.284.284,0,0,0-.013-.062c-.018-.082-.038-.165-.059-.249s-.035-.133-.054-.2a.282.282,0,0,0-.026-.087c-.01-.028-.028-.1-.043-.143l-.03-.092c-.013-.041-.026-.082-.041-.124-.025-.074-.051-.147-.077-.221s-.054-.146-.082-.219c-.056-.148-.117-.295-.178-.441-.239-.57-.507-1.131-.754-1.688a9.326,9.326,0,0,1-.352-.894l-.031.044a1.9,1.9,0,0,0-.133.237,5.881,5.881,0,0,1-1.3,2.882l-1.306-1.9-1.143,1.757a1.435,1.435,0,0,0-.458.813c-.036.115-.071.24-.1.374-.023.089-.044.183-.064.277-.012.048-.021.1-.031.145l-.03.15v.023c-.02.1-.04.207-.058.315s-.04.231-.058.347q-.02.114-.035.227c-.023.147-.043.295-.063.441-.012.086-.023.165-.033.255l-.04.329c.084.27.178.537.275.8a1.327,1.327,0,0,1,.107.453,11.254,11.254,0,0,0,6.184,0,.065.065,0,0,1,0-.016,1.961,1.961,0,0,1-.04-.45h0a12.348,12.348,0,0,1,.165-1.26,4.612,4.612,0,0,0,.031-.619V697.5C329.954,697.436,329.952,697.377,329.95,697.318Zm0,0a1.137,1.137,0,0,0-.012-.2c-.012-.066-.01-.123-.018-.186s-.015-.125-.023-.188-.02-.125-.031-.188-.023-.125-.036-.188a.284.284,0,0,0-.013-.062c-.018-.082-.038-.165-.059-.249s-.035-.133-.054-.2a.282.282,0,0,0-.026-.087c-.01-.028-.028-.1-.043-.143l-.03-.092c-.013-.041-.026-.082-.041-.124-.025-.074-.051-.147-.077-.221s-.054-.146-.082-.219c-.056-.148-.117-.295-.178-.441-.239-.57-.507-1.131-.754-1.688a9.326,9.326,0,0,1-.352-.894l-.031.044a1.9,1.9,0,0,0-.133.237,5.881,5.881,0,0,1-1.3,2.882l-1.306-1.9-1.143,1.757a1.435,1.435,0,0,0-.458.813c-.036.115-.071.24-.1.374-.023.089-.044.183-.064.277-.012.048-.021.1-.031.145l-.03.15v.023c-.02.1-.04.207-.058.315s-.04.231-.058.347q-.02.114-.035.227c-.023.147-.043.295-.063.441-.012.086-.023.165-.033.255l-.04.329c.084.27.178.537.275.8a1.327,1.327,0,0,1,.107.453,11.254,11.254,0,0,0,6.184,0,.065.065,0,0,1,0-.016,1.961,1.961,0,0,1-.04-.45h0a12.348,12.348,0,0,1,.165-1.26,4.612,4.612,0,0,0,.031-.619V697.5C329.954,697.436,329.952,697.377,329.95,697.318Zm0,0a1.137,1.137,0,0,0-.012-.2c-.012-.066-.01-.123-.018-.186s-.015-.125-.023-.188-.02-.125-.031-.188-.023-.125-.036-.188a.284.284,0,0,0-.013-.062c-.018-.082-.038-.165-.059-.249s-.035-.133-.054-.2a.282.282,0,0,0-.026-.087c-.01-.028-.028-.1-.043-.143l-.03-.092c-.013-.041-.026-.082-.041-.124-.025-.074-.051-.147-.077-.221s-.054-.146-.082-.219c-.056-.148-.117-.295-.178-.441-.239-.57-.507-1.131-.754-1.688a9.326,9.326,0,0,1-.352-.894l-.031.044a1.9,1.9,0,0,0-.133.237,5.881,5.881,0,0,1-1.3,2.882l-1.306-1.9-1.143,1.757a1.435,1.435,0,0,0-.458.813c-.036.115-.071.24-.1.374-.023.089-.044.183-.064.277-.012.048-.021.1-.031.145l-.03.15v.023c-.02.1-.04.207-.058.315s-.04.231-.058.347q-.02.114-.035.227c-.023.147-.043.295-.063.441-.012.086-.023.165-.033.255l-.04.329c.084.27.178.537.275.8a1.327,1.327,0,0,1,.107.453,11.254,11.254,0,0,0,6.184,0,.065.065,0,0,1,0-.016,1.961,1.961,0,0,1-.04-.45h0a12.348,12.348,0,0,1,.165-1.26,4.612,4.612,0,0,0,.031-.619V697.5C329.954,697.436,329.952,697.377,329.95,697.318Zm0,0a1.137,1.137,0,0,0-.012-.2c-.012-.066-.01-.123-.018-.186s-.015-.125-.023-.188-.02-.125-.031-.188-.023-.125-.036-.188a.284.284,0,0,0-.013-.062c-.018-.082-.038-.165-.059-.249s-.035-.133-.054-.2a.282.282,0,0,0-.026-.087c-.01-.028-.028-.1-.043-.143l-.03-.092c-.013-.041-.026-.082-.041-.124-.025-.074-.051-.147-.077-.221s-.054-.146-.082-.219c-.056-.148-.117-.295-.178-.441-.239-.57-.507-1.131-.754-1.688a9.326,9.326,0,0,1-.352-.894l-.031.044a1.9,1.9,0,0,0-.133.237,5.881,5.881,0,0,1-1.3,2.882l-1.306-1.9-1.143,1.757a1.435,1.435,0,0,0-.458.813c-.036.115-.071.24-.1.374-.023.089-.044.183-.064.277-.012.048-.021.1-.031.145l-.03.15v.023c-.02.1-.04.207-.058.315s-.04.231-.058.347q-.02.114-.035.227c-.023.147-.043.295-.063.441-.012.086-.023.165-.033.255l-.04.329c.084.27.178.537.275.8a1.327,1.327,0,0,1,.107.453,11.254,11.254,0,0,0,6.184,0,.065.065,0,0,1,0-.016,1.961,1.961,0,0,1-.04-.45h0a12.348,12.348,0,0,1,.165-1.26,4.612,4.612,0,0,0,.031-.619V697.5C329.954,697.436,329.952,697.377,329.95,697.318Zm0,0a1.137,1.137,0,0,0-.012-.2c-.012-.066-.01-.123-.018-.186s-.015-.125-.023-.188-.02-.125-.031-.188-.023-.125-.036-.188a.284.284,0,0,0-.013-.062c-.018-.082-.038-.165-.059-.249s-.035-.133-.054-.2a.282.282,0,0,0-.026-.087c-.01-.028-.028-.1-.043-.143l-.03-.092c-.013-.041-.026-.082-.041-.124-.025-.074-.051-.147-.077-.221s-.054-.146-.082-.219c-.056-.148-.117-.295-.178-.441-.239-.57-.507-1.131-.754-1.688a9.326,9.326,0,0,1-.352-.894l-.031.044a1.9,1.9,0,0,0-.133.237,5.881,5.881,0,0,1-1.3,2.882l-1.306-1.9-1.143,1.757a1.435,1.435,0,0,0-.458.813c-.036.115-.071.24-.1.374-.023.089-.044.183-.064.277-.012.048-.021.1-.031.145l-.03.15v.023c-.02.1-.04.207-.058.315s-.04.231-.058.347q-.02.114-.035.227c-.023.147-.043.295-.063.441-.012.086-.023.165-.033.255l-.04.329c.084.27.178.537.275.8a1.327,1.327,0,0,1,.107.453,11.254,11.254,0,0,0,6.184,0,.065.065,0,0,1,0-.016,1.961,1.961,0,0,1-.04-.45h0a12.348,12.348,0,0,1,.165-1.26,4.612,4.612,0,0,0,.031-.619V697.5C329.954,697.436,329.952,697.377,329.95,697.318Zm0,0a1.137,1.137,0,0,0-.012-.2c-.012-.066-.01-.123-.018-.186s-.015-.125-.023-.188-.02-.125-.031-.188-.023-.125-.036-.188a.284.284,0,0,0-.013-.062c-.018-.082-.038-.165-.059-.249s-.035-.133-.054-.2a.282.282,0,0,0-.026-.087c-.01-.028-.028-.1-.043-.143l-.03-.092c-.013-.041-.026-.082-.041-.124-.025-.074-.051-.147-.077-.221s-.054-.146-.082-.219c-.056-.148-.117-.295-.178-.441-.239-.57-.507-1.131-.754-1.688a9.326,9.326,0,0,1-.352-.894l-.031.044a1.9,1.9,0,0,0-.133.237,5.881,5.881,0,0,1-1.3,2.882l-1.306-1.9-1.143,1.757a1.435,1.435,0,0,0-.458.813c-.036.115-.071.24-.1.374-.023.089-.044.183-.064.277-.012.048-.021.1-.031.145l-.03.15v.023c-.02.1-.04.207-.058.315s-.04.231-.058.347q-.02.114-.035.227c-.023.147-.043.295-.063.441-.012.086-.023.165-.033.255l-.04.329c.084.27.178.537.275.8a1.327,1.327,0,0,1,.107.453,11.254,11.254,0,0,0,6.184,0,.065.065,0,0,1,0-.016,1.961,1.961,0,0,1-.04-.45h0a12.348,12.348,0,0,1,.165-1.26,4.612,4.612,0,0,0,.031-.619V697.5C329.954,697.436,329.952,697.377,329.95,697.318Z" transform="translate(-315.518 -677.956)" fill="#444176"/>
      <path id="Path_104" data-name="Path 104" d="M308.9,693.315l-.11-.015a4.014,4.014,0,0,1-.494-.1l-.061-.016c-.4-.114-.841-.318-.94-.677a.641.641,0,0,1,.01-.351,3.008,3.008,0,0,1,.224-.566v-.01a.807.807,0,0,1,.041-.074,1.647,1.647,0,0,1,.594-.647l-.2.031-1.673.272-2.594.418s-.461-.092-1.089,1.637a.269.269,0,0,1-.021.064c-.151.423-.311.952-.476,1.612-.114.458-.217.907-.313,1.344-.028.132-.056.262-.082.39a10.454,10.454,0,0,0,.957.988l.054.051a11.242,11.242,0,0,0,2.194,1.553l.031.016a10.857,10.857,0,0,0,1.548.685l.14.049c.03-.3.063-.642.1-.988a.281.281,0,0,1,.013-.1l.039-.329c.01-.084.021-.165.033-.255.02-.147.04-.295.063-.441q.015-.114.035-.227c.018-.117.038-.234.058-.347s.038-.212.058-.315v-.023l.03-.15c.01-.049.02-.1.031-.145.02-.094.041-.188.064-.277.033-.133.068-.259.1-.374a1.407,1.407,0,0,1,.458-.813l1.143-1.757.048-.074.021-.033Z" transform="translate(-299.046 -678.17)" opacity="0.1"/>
      <path id="Path_105" data-name="Path 105" d="M308.22,693.335l-1.214,1.864a1.392,1.392,0,0,0-.45.789c-.038.122-.076.255-.112.4a19.692,19.692,0,0,0-.372,2.156.255.255,0,0,1-.013.1c-.056.458-.1.907-.14,1.3a10.849,10.849,0,0,1-1.548-.685l-.031-.016a11.242,11.242,0,0,1-2.193-1.553l-.054-.051a10.46,10.46,0,0,1-.957-.988c-.04-.044-.077-.091-.115-.137.018-.086.036-.165.056-.257.094-.436.2-.884.311-1.34a16.232,16.232,0,0,1,.56-1.844.5.5,0,0,1,.021-.053c.583-1.5,1-1.416,1-1.416l2.739-.441,1.729-.28-.054.031a1.755,1.755,0,0,0-.476.507l-.048.081c-.02.031-.038.066-.058.1a2.921,2.921,0,0,0-.227.576.606.606,0,0,0,.04.471,1.568,1.568,0,0,0,1.016.59l.064.016A4.123,4.123,0,0,0,308.22,693.335Z" transform="translate(-298.461 -678.187)" fill="#f1d2d7"/>
      <path id="Path_106" data-name="Path 106" d="M376.618,694.533l-.068-1.462c.288-2.305-.288-2.449-.288-2.449l-.685-.329h-.018l-2.755-1.335-.107-.053-.033-.015h0l-.359-.175h0l-.227-.11-.425-.206-.143-.069v.571c0,.165.015.357.028.581.03.563.084,1.317.181,2.207.054.515.123,1.079.209,1.683.051.357.087.713.11,1.06a18.665,18.665,0,0,1-.109,3.508l.15-.048a11.025,11.025,0,0,0,1.192-.478h0a10.944,10.944,0,0,0,2.124-1.3l.03-.021a10.984,10.984,0,0,0,1.2-1.085Z" transform="translate(-357.343 -676.056)" opacity="0.1"/>
      <path id="Path_107" data-name="Path 107" d="M377.482,694.492l-.068-1.466c.288-2.305-.288-2.449-.288-2.449l-.823-.4h-.016l-2.763-1.341-.127-.061-.025-.012-.2-.1-.268-.13-.53-.257v.234h0v.29c0,.165.015.38.03.626.028.525.077,1.214.165,2.032.059.562.133,1.186.231,1.858q.076.539.109,1.065a18.635,18.635,0,0,1-.1,3.458,11.153,11.153,0,0,0,3.317-1.782l.03-.021a10.975,10.975,0,0,0,1.2-1.085q.072-.072.138-.148Z" transform="translate(-358.061 -676.015)" fill="#f1d2d7"/>
      <path id="Path_108" data-name="Path 108" d="M332.486,637.309a4.12,4.12,0,0,1,1.541-.165,5.044,5.044,0,0,1,1.177.571,3.049,3.049,0,0,0,1.215.321.715.715,0,0,0,.446-.087.692.692,0,0,0,.2-.678,3.9,3.9,0,0,0-.988-1.851,3.623,3.623,0,0,0-.619-.627,3.271,3.271,0,0,0-2.106-.478,5.278,5.278,0,0,0-2.412.619c-.494.283-1.627,1.176-1.233,1.821C330.12,637.431,331.839,637.419,332.486,637.309Z" transform="translate(-322.355 -630.931)" opacity="0.1"/>
      <path id="Path_109" data-name="Path 109" d="M332.486,636.309a4.12,4.12,0,0,1,1.541-.165,5.044,5.044,0,0,1,1.177.571,3.049,3.049,0,0,0,1.215.321.715.715,0,0,0,.446-.087.692.692,0,0,0,.2-.678,3.9,3.9,0,0,0-.988-1.851,3.628,3.628,0,0,0-.619-.627,3.27,3.27,0,0,0-2.106-.478,5.276,5.276,0,0,0-2.412.619c-.494.283-1.627,1.176-1.233,1.821C330.12,636.431,331.839,636.419,332.486,636.309Z" transform="translate(-322.355 -630.095)" fill="#444176"/>
    </g>
    <path id="Path_110" data-name="Path 110" d="M619.547,370.622h.025a4.436,4.436,0,0,0,.494,2.378c.718.659,3.7-.659,3.491-1.456-.041-.165-.11-.435-.2-.776a2.318,2.318,0,0,0,1.764-.8l.517,1.594.036.114h.039c.341,3.231,1.113,9.94,1.731,10.839.823,1.191,1.77,6.35,1.77,6.35l1.77,10.584s.682,6.093,1.09,6.752a.766.766,0,0,0,.448.232,6.485,6.485,0,0,1-.988,2.016c-.823.925-1.907,2.778-2.86,2.646s-1.225,1.853.545,2.116a14.634,14.634,0,0,0,3.743-.219,1.34,1.34,0,0,0,1.3,1.278,21.752,21.752,0,0,0,5.447-.529s3.129-1.317,3.269-2.249a29.452,29.452,0,0,0-.647-4.807c.494-.792-.033-7.628-.033-7.628l-.953-13.1s.545-7.275,0-8.6c-.341-.823-.468-4.611-.515-7.32l.659.043a1.21,1.21,0,0,0,.1-.143l.165.012a2.188,2.188,0,0,0,.137-2.381c-.506-1.082-.41-5.966-.329-8.4h0l.1-1.153a.33.33,0,0,0,.081-.125,12.078,12.078,0,0,0,3.677-1.113,3.731,3.731,0,0,0,.965-.586c.682-.659.272-4.631-1.09-10.584s-2.587-5.424-2.587-5.424-3.269-.265-4.767-2.249-2.5-1.958-2.5-1.958h0c-.038-.26-.064-.506-.082-.734,0-.086-.013-.165-.018-.25a4.353,4.353,0,0,0,1.133-1.718,8.511,8.511,0,0,0,.977-.426,1.161,1.161,0,0,0,.2-.188,1.664,1.664,0,0,0,.525-1.036,4.238,4.238,0,0,0-.061-1.3,3.149,3.149,0,0,0-2.078-2.852q-2.161-1.135-4.333-2.246a2.391,2.391,0,0,0-.927-.329,2.47,2.47,0,0,0-1.568.741,6.693,6.693,0,0,0-.535.469,3.01,3.01,0,0,0-.394.423,4.059,4.059,0,0,0-.538,3.028.415.415,0,0,0,.44.371,4.246,4.246,0,0,0-.453,1.91,4.331,4.331,0,0,0,2.011,3.638c0,.092,0,.183.008.27a9.67,9.67,0,0,1-.033,1.013s-3.623,1.958-4.03,2.883a4.308,4.308,0,0,1-1.907,1.587s-2.86,1.456-2.86,6.615l-1.5,7.275-.272,13.89s.188-.165.494-.4c-.01.092-.018.188-.026.285a15.657,15.657,0,0,0-.041,1.6Zm18.3,35.95c-.056.212-.138.494-.242.823-.046-.273-.092-.543-.138-.8C637.58,406.584,637.707,406.578,637.842,406.573Z" transform="translate(-524.297 -275.33)" fill="url(#linear-gradient-4)"/>
    <path id="Path_111" data-name="Path 111" d="M678.4,808.514a10.045,10.045,0,0,1-1.317,3.279c-.792.917-1.83,2.755-2.745,2.623s-1.181,1.836.525,2.1a20.345,20.345,0,0,0,5.238-.524s3.017-1.317,3.147-2.23a41.886,41.886,0,0,0-.787-5.64Z" transform="translate(-569.797 -678.977)" fill="#53526b"/>
    <path id="Path_112" data-name="Path 112" d="M678.4,808.514a10.045,10.045,0,0,1-1.317,3.279c-.792.917-1.83,2.755-2.745,2.623s-1.181,1.836.525,2.1a20.345,20.345,0,0,0,5.238-.524s3.017-1.317,3.147-2.23a41.886,41.886,0,0,0-.787-5.64Z" transform="translate(-569.797 -678.977)" opacity="0.05"/>
    <path id="Path_113" data-name="Path 113" d="M707.852,814.875a10.048,10.048,0,0,1-1.317,3.279c-.792.917-1.835,2.755-2.748,2.623s-1.181,1.836.525,2.1a20.4,20.4,0,0,0,5.247-.525s3.017-1.317,3.147-2.23a41.88,41.88,0,0,0-.787-5.64Z" transform="translate(-594.401 -684.289)" fill="#53526b"/>
    <path id="Path_114" data-name="Path 114" d="M659.66,598.67s1.049,11.279,1.836,12.459,1.7,6.3,1.7,6.3l1.7,10.492s.659,6.034,1.049,6.689,5.258.374,5.258.374l-3.027-34.737Z" transform="translate(-558.144 -504.018)" fill="#5f5d7e"/>
    <path id="Path_115" data-name="Path 115" d="M659.66,598.67s1.049,11.279,1.836,12.459,1.7,6.3,1.7,6.3l1.7,10.492s.659,6.034,1.049,6.689,5.258.374,5.258.374l-3.027-34.737Z" transform="translate(-558.144 -504.018)" opacity="0.05"/>
    <path id="Path_116" data-name="Path 116" d="M646.92,566l.343,1.089,1.853,5.881.036.112h.01c.249.056,5.5,1.263,6.631,1.634a1.592,1.592,0,0,1,.18.068c.525.262,1.181,9.7,1.181,9.7s.394,8.919.659,9.574,1.317,14.162,1.968,13.77,5.377,0,5.377,0c.525-.525,0-7.606,0-7.606l-.932-12.981s.525-7.213,0-8.525-.525-10.1-.525-10.1l-10.735-1.678-1.037-.165Z" transform="translate(-547.502 -476.728)" fill="#5f5d7e"/>
    <path id="Path_117" data-name="Path 117" d="M649,570.74l1.853,5.88.044.115c.249.056,5.5,1.263,6.632,1.634h.114l-2.933-7.776-.084-.224-.953.061Z" transform="translate(-549.24 -480.378)" opacity="0.02"/>
    <path id="Path_118" data-name="Path 118" d="M662.836,406.73s-4.853,5.247-7.87.917l-2.885,1.968.525,3.017L650.9,435.451a26.609,26.609,0,0,1,7.606.917,4.881,4.881,0,0,0,5.115-1.181l-.519-20.064,1.181-6.164Z" transform="translate(-550.827 -343.686)" opacity="0.1"/>
    <path id="Path_119" data-name="Path 119" d="M662.836,404.34s-4.853,5.247-7.87.917l-2.885,1.968.525,3.017L650.9,433.061a26.61,26.61,0,0,1,7.606.917,4.881,4.881,0,0,0,5.115-1.181l-.519-20.064,1.181-6.164Z" transform="translate(-550.827 -341.689)" fill="#53526b"/>
    <g id="TESLA" transform="translate(100.791 85.475)">
      <g id="g8">
        <path id="polyline10" d="M613.782,522.36v.827h-.264v-.55h-.963v.55h-.265v-.825l1.492,0" transform="translate(-612.252 -521.82)" fill="#e82127"/>
        <path id="path12" d="M656.554,543.213h-1.018a.376.376,0,0,1-.277-.273h1.569a.377.377,0,0,1-.277.273" transform="translate(-655.26 -542.94)" fill="#e82127"/>
      </g>
      <g id="g30" transform="translate(8.78 0.01)">
        <path id="path32" d="M710.3,543a.38.38,0,0,1-.275.272h-.428l-.021.008v1.08h-.263v-1.08l-.025-.008h-.428a.385.385,0,0,1-.275-.272H710.3" transform="translate(-708.58 -543)" fill="#e82127"/>
      </g>
    </g>
    <path id="Path_120" data-name="Path 120" d="M630.784,569.2s0,3.41-.787,4.853-5.377.659-5.377.659l.917-4.853Z" transform="translate(-528.874 -479.401)" fill="#d6dbe6"/>
    <path id="Path_121" data-name="Path 121" d="M625.2,585.878c.692.659,3.559-.659,3.361-1.443-.138-.555-.622-2.541-.9-3.667l-.191-.792s-1.68-.525-2.273,0a3.74,3.74,0,0,0-.438,1.853C624.643,583.407,624.766,585.459,625.2,585.878Z" transform="translate(-528.958 -488.207)" fill="#fdc2cc"/>
    <path id="Path_122" data-name="Path 122" d="M666,373.512l4.589,3.541s6.819-.394,5.115-3.672a12.226,12.226,0,0,1-1.317-4.634,9.682,9.682,0,0,1,0-1.793s-6.3-5.764-5.508.787a14.864,14.864,0,0,1,.109,1.515C669.081,374.172,666,373.512,666,373.512Z" transform="translate(-563.44 -308.501)" fill="#fdc2cc"/>
    <path id="Path_123" data-name="Path 123" d="M683.214,367.735a14.864,14.864,0,0,1,.109,1.515,4.3,4.3,0,0,0,2.383.715c1.174,0,2.039-1.143,2.819-1.9-.087-1.089.2-1.115.2-1.115S682.427,361.178,683.214,367.735Z" transform="translate(-577.763 -308.495)" opacity="0.1"/>
    <circle id="Ellipse_34" data-name="Ellipse 34" cx="4.328" cy="4.328" r="4.328" transform="translate(103.615 52.553)" fill="#fdc2cc"/>
    <path id="Path_124" data-name="Path 124" d="M699.511,394.38s.721.066,2.164,2.032,4.589,2.23,4.589,2.23,1.181-.525,2.492,5.377,1.7,9.836,1.049,10.491a9.547,9.547,0,0,1-4.6,1.576s-.394,8.262.262,9.7a2.235,2.235,0,0,1-.132,2.361l-5.764-.394a13.716,13.716,0,0,1-2.361-6.819c-.394-4.328-1.7-16.657-1.049-18.1s3.541-5.115,3.41-5.508A23.677,23.677,0,0,1,699.511,394.38Z" transform="translate(-588.487 -333.369)" opacity="0.1"/>
    <path id="Path_125" data-name="Path 125" d="M700.872,394.14s.97-.026,2.412,1.942,4.588,2.23,4.588,2.23,1.181-.525,2.492,5.377,1.7,9.836,1.049,10.491a9.544,9.544,0,0,1-4.59,1.574s-.394,8.262.262,9.7a2.235,2.235,0,0,1-.132,2.361l-5.764-.394a13.717,13.717,0,0,1-2.362-6.819c-.394-4.328-1.708-16.655-1.052-18.091s3.541-5.115,3.411-5.508S700.872,394.14,700.872,394.14Z" transform="translate(-589.833 -333.169)" fill="#d6dbe6"/>
    <path id="Path_126" data-name="Path 126" d="M625,581.818a4.3,4.3,0,0,1,2.9-1.06l-.191-.792s-1.68-.525-2.273,0A3.678,3.678,0,0,0,625,581.818Z" transform="translate(-529.192 -488.199)" opacity="0.1"/>
    <path id="Path_127" data-name="Path 127" d="M634.44,399.16s-3.345,2.164-3.738,3.083a4.172,4.172,0,0,1-1.836,1.574s-2.753,1.443-2.753,6.557l-1.443,7.213,6.557,9.181s.787-9.181,1.181-11.41.917-6.422.917-6.422,1.968-2.492,1.7-3.147S634.44,399.16,634.44,399.16Z" transform="translate(-528.916 -337.362)" opacity="0.1"/>
    <path id="Path_128" data-name="Path 128" d="M632.394,398.92s-3.488,1.942-3.88,2.859a4.175,4.175,0,0,1-1.836,1.574s-2.753,1.443-2.753,6.557l-1.443,7.213-.262,13.77s2.361-2.23,4.066-1.181,2.753-3.41,2.753-3.41.787-9.181,1.181-11.41.917-6.422.917-6.422,1.968-2.492,1.7-3.147A62.915,62.915,0,0,1,632.394,398.92Z" transform="translate(-526.87 -337.162)" fill="#d6dbe6"/>
    <path id="Path_129" data-name="Path 129" d="M672.545,329.769a4.28,4.28,0,0,1,.764-.754,2.341,2.341,0,0,1,1.51-.734,2.26,2.26,0,0,1,.893.319q2.091,1.1,4.171,2.226a3.88,3.88,0,0,1,1.4,1.067,4.116,4.116,0,0,1,.6,1.762,4.325,4.325,0,0,1,.059,1.288,1.616,1.616,0,0,1-.57,1.082c-.374.272-.886.273-1.2.629a3.5,3.5,0,0,0-.389.744c-.129.25-.351.494-.6.45a.634.634,0,0,1-.443-.585,3.544,3.544,0,0,1,.048-.823,1.95,1.95,0,0,0-.3-1.385c-.2-.25-.481-.4-.672-.659-.458-.619-.249-1.647-.751-2.228a1.191,1.191,0,0,0-1.153-.329,4.927,4.927,0,0,0-1.153.494,8.56,8.56,0,0,1-1.579.609c-.458.125-.988.425-1.145-.184A4.06,4.06,0,0,1,672.545,329.769Z" transform="translate(-568.401 -278.153)" opacity="0.1"/>
    <path id="Path_130" data-name="Path 130" d="M673.342,328.979a4.285,4.285,0,0,1,.764-.754,2.341,2.341,0,0,1,1.51-.734,2.259,2.259,0,0,1,.893.319c1.393.734,2.551.04,4.171,2.226.346.468,1.041.57,1.4,1.067a4.114,4.114,0,0,1,.6,1.762,4.321,4.321,0,0,1,.059,1.288,1.615,1.615,0,0,1-.57,1.082c-.374.272-.886.273-1.2.629a3.507,3.507,0,0,0-.389.744c-.128.25-.351.494-.6.45a.634.634,0,0,1-.443-.585,3.551,3.551,0,0,1,.048-.823,1.95,1.95,0,0,0-.3-1.385c-.2-.25-.481-.4-.672-.659-.458-.619-.249-1.647-.751-2.228a1.191,1.191,0,0,0-1.153-.329,4.929,4.929,0,0,0-1.153.494,8.566,8.566,0,0,1-1.579.609c-.458.125-.988.425-1.144-.184A4.051,4.051,0,0,1,673.342,328.979Z" transform="translate(-569.066 -277.493)" fill="#865a61"/>
    <path id="Path_131" data-name="Path 131" d="M735.779,458.09s1.749,4.459.436,6.3l-2.885-.659s2.623.787,2.23-.787A16.045,16.045,0,0,1,735.779,458.09Z" transform="translate(-619.683 -386.588)" opacity="0.1"/>
    <path id="Path_132" data-name="Path 132" d="M729.383,522.335s-3.8.262-4.853-.525a10.045,10.045,0,0,0,4.734,1.968Z" transform="translate(-612.332 -439.815)" opacity="0.1"/>
    <path id="Path_133" data-name="Path 133" d="M645.144,474s-1.968,6.034-1.836,6.951.394,11.017.394,11.017l.394-.132-.132-11.017Z" transform="translate(-544.48 -399.878)" opacity="0.1"/>
    <path id="Path_134" data-name="Path 134" d="M287.876,131.148,242.919,94.919a2.813,2.813,0,0,0-1.993-.823h-1.91a24.372,24.372,0,1,0-4.221,4.221v1.909a2.813,2.813,0,0,0,.823,1.993l44.956,36.229a2.8,2.8,0,0,0,3.975,0l3.313-3.31A2.827,2.827,0,0,0,287.876,131.148ZM219.787,94.1A14.995,14.995,0,1,1,230.4,89.7,15.009,15.009,0,0,1,219.787,94.1Z" transform="translate(-170.362 -49.652)" fill="url(#linear-gradient-5)"/>
    <path id="Path_135" data-name="Path 135" d="M289.876,129.148,244.919,92.919a2.813,2.813,0,0,0-1.993-.823h-1.91a24.372,24.372,0,1,0-4.221,4.221v1.909a2.813,2.813,0,0,0,.823,1.993l44.956,36.229a2.8,2.8,0,0,0,3.975,0l3.313-3.31a2.827,2.827,0,0,0,.012-3.988ZM221.787,92.1A14.995,14.995,0,1,1,232.4,87.7,15.009,15.009,0,0,1,221.787,92.1Z" transform="translate(-172.032 -47.981)" fill="#f15d90"/>
    <path id="Path_136" data-name="Path 136" d="M709.45,475.558s-6.562-7.526-5.64-2.361a7.911,7.911,0,0,0,4.328,6.034C709.318,479.624,709.45,475.558,709.45,475.558Z" transform="translate(-594.949 -397.695)" fill="#fdc2cc"/>
    <path id="Path_137" data-name="Path 137" d="M726.118,454.51s.132,4.853.787,5.508-.394,1.443-.394,1.443l-2.623-.659s.659,4.328-2.1,3.8a8.359,8.359,0,0,0,3.672,1.968c1.836.263,1.7-.394,1.7-.394l2.753-3.279Z" transform="translate(-610.043 -383.597)" fill="#d6dbe6"/>
    <path id="Path_138" data-name="Path 138" d="M701.762,489.42l2.661-.585-.356-1.227-1.647-.659-2.141.988Z" transform="translate(-584.961 -406.766)" fill="#d6dbe6"/>
    <path id="Path_139" data-name="Path 139" d="M280.78,143.009a11.145,11.145,0,0,0,2.236,6.715c.147.2.3.385.459.571.086.1.175.2.265.3q.068.076.138.148a10.981,10.981,0,0,0,1.2,1.085l.03.021a11.15,11.15,0,0,0,3.317,1.782l.15.048c.092.031.188.059.282.086l.038.012c.048.013.1.028.145.04a11.151,11.151,0,0,0,2.936.39c.165,0,.338,0,.506-.012a11.072,11.072,0,0,0,2.6-.425h.016c.156-.046.311-.094.464-.147h.016l.14-.049a10.86,10.86,0,0,0,1.548-.685l.031-.016.165-.091a11.169,11.169,0,0,0,2.032-1.462l.054-.051a10.469,10.469,0,0,0,.957-.988l.035-.041c.028-.031.054-.063.081-.1.072-.086.142-.175.211-.263a11.2,11.2,0,1,0-20.044-6.869Z" transform="translate(-241.656 -114.041)" fill="#c0bccf"/>
    <path id="Path_140" data-name="Path 140" d="M296.049,159.288a5.445,5.445,0,0,0,3.542-1.751c1.085-1.5,1.823-1.522,1.859-1.522h0c.028-.2.048-.392.061-.57v-.025a.33.33,0,0,1-.153.068c-.217.033-.408-.173-.517-.392a3.058,3.058,0,0,0-.329-.649c-.268-.31-.708-.311-1.028-.547a1.413,1.413,0,0,1-.494-.942,2.593,2.593,0,0,1-.02-.412,4.561,4.561,0,0,1,.069-.878,3.616,3.616,0,0,1,.517-1.533c.3-.43.9-.522,1.2-.929,1.388-1.9,2.378-1.3,3.572-1.938a1.913,1.913,0,0,1,.764-.278,2,2,0,0,1,1.293.641,3.692,3.692,0,0,1,.659.659,3.574,3.574,0,0,1,.52,2,2.993,2.993,0,0,1-.076.782c-.1.379-.354.354-.637.268a3.422,3.422,0,0,1-1.163,4.295v.173a.3.3,0,0,0,0,.038,7.789,7.789,0,0,0,.026.787c.028.015,2.691,1.525,2.992,2.241a3.252,3.252,0,0,0,1.418,1.235,4.43,4.43,0,0,1,1.811,2.727l-.035.041a10.561,10.561,0,0,1-.957,1.008l-.054.053a11.175,11.175,0,0,1-2.032,1.482c-.053.031-.107.063-.165.092l-.031.016a10.767,10.767,0,0,1-1.548.7l-.14.051h-.016c-.153.054-.308.1-.464.148h-.016a10.9,10.9,0,0,1-2.6.431c-.165.008-.329.012-.506.012a10.975,10.975,0,0,1-2.928-.38c-.049-.012-.1-.026-.145-.04l-.038-.012c-.094-.026-.189-.056-.282-.087l-.15-.048a11.1,11.1,0,0,1-3.322-1.813l-.03-.021a11.055,11.055,0,0,1-1.2-1.1q-.071-.072-.138-.152c-.091-.1-.18-.2-.265-.3-.165-.189-.313-.382-.459-.581C295.3,158.949,296.049,159.288,296.049,159.288Z" transform="translate(-253.05 -126.719)" fill="url(#linear-gradient-6)"/>
    <path id="Path_141" data-name="Path 141" d="M334.236,189.7l3.542-2.732s-2.373.509-2.305-3.284a.291.291,0,0,1,0-.038,9.7,9.7,0,0,1,.082-1.131c.608-5.06-4.25-.608-4.25-.608a7.239,7.239,0,0,1,0,1.347v.036a9.41,9.41,0,0,1-1.011,3.575C328.974,189.394,334.236,189.7,334.236,189.7Z" transform="translate(-282.839 -154.372)" fill="#fdc2cc"/>
    <path id="Path_142" data-name="Path 142" d="M337.946,182.55c.6.585.968,1.647,1.872,1.647a3.318,3.318,0,0,0,1.839-.552,9.7,9.7,0,0,1,.082-1.131c.608-5.06-4.25-.608-4.25-.608S338.01,181.726,337.946,182.55Z" transform="translate(-289.028 -154.372)" opacity="0.1"/>
    <circle id="Ellipse_35" data-name="Ellipse 35" cx="3.34" cy="3.34" r="3.34" transform="translate(47.451 22.981)" fill="#fdc2cc"/>
    <path id="Path_143" data-name="Path 143" d="M330.132,151.275a3.663,3.663,0,0,0-.659-.646,2,2,0,0,0-1.293-.629,1.935,1.935,0,0,0-.764.273c-1.194.629-2.184.035-3.572,1.905-.3.4-.891.494-1.2.914a3.5,3.5,0,0,0-.517,1.508,3.7,3.7,0,0,0-.051,1.1,1.382,1.382,0,0,0,.494.925c.319.232.759.234,1.028.538a2.987,2.987,0,0,1,.329.637c.109.214.3.417.517.385a.533.533,0,0,0,.379-.494,3.034,3.034,0,0,0-.041-.7,1.682,1.682,0,0,1,.257-1.186c.165-.216.412-.344.575-.563.392-.529.214-1.416.644-1.907a1.019,1.019,0,0,1,.988-.275,4.211,4.211,0,0,1,.988.425,7.33,7.33,0,0,0,1.352.522c.392.107.846.364.98-.165A3.48,3.48,0,0,0,330.132,151.275Z" transform="translate(-276.138 -129.232)" opacity="0.1"/>
    <path id="Path_144" data-name="Path 144" d="M330.132,150.275a3.665,3.665,0,0,0-.659-.646,2,2,0,0,0-1.293-.629,1.935,1.935,0,0,0-.764.273c-1.194.629-2.184.035-3.572,1.905-.3.4-.891.494-1.2.914a3.5,3.5,0,0,0-.517,1.508,3.7,3.7,0,0,0-.051,1.1,1.382,1.382,0,0,0,.494.925c.319.232.759.234,1.028.538a2.987,2.987,0,0,1,.329.637c.109.214.3.417.517.385a.533.533,0,0,0,.379-.494,3.034,3.034,0,0,0-.041-.7,1.682,1.682,0,0,1,.257-1.186c.165-.216.412-.344.575-.563.392-.529.214-1.416.644-1.907a1.019,1.019,0,0,1,.988-.275,4.211,4.211,0,0,1,.988.425,7.332,7.332,0,0,0,1.352.522c.392.107.846.364.98-.165A3.48,3.48,0,0,0,330.132,150.275Z" transform="translate(-276.138 -128.397)" fill="#865a61"/>
    <path id="Path_145" data-name="Path 145" d="M326.756,216.235l-.066,2.528a11.15,11.15,0,0,0,2.936.39c.165,0,.338,0,.506-.012a11.074,11.074,0,0,0,2.6-.425h.017c.156-.046.311-.094.464-.147h.016l.14-.049a10.858,10.858,0,0,0,1.548-.685l.031-.016.165-.091-.255-3.407.407-2.337-2.226-1.517a3.919,3.919,0,0,1-.418.507,2.8,2.8,0,0,1-.761.563c-1.6.787-3.415-.464-4.319-1.238l-.206-.183c-.234-.212-.367-.357-.367-.357l-1.113,1.719Z" transform="translate(-279.305 -179.152)" opacity="0.1"/>
    <path id="Path_146" data-name="Path 146" d="M326.756,217.235l-.066,2.528a11.15,11.15,0,0,0,2.936.39c.165,0,.338,0,.506-.012a11.072,11.072,0,0,0,2.6-.425h.017c.156-.046.311-.094.464-.147h.016l.14-.049a10.853,10.853,0,0,0,1.548-.685l.031-.016.165-.091-.255-3.407.407-2.337-2.226-1.517a3.919,3.919,0,0,1-.418.507,2.8,2.8,0,0,1-.761.563c-1.6.787-3.415-.464-4.319-1.238l-.206-.183c-.234-.212-.367-.357-.367-.357l-1.113,1.719Z" transform="translate(-279.305 -179.987)" fill="#53526b"/>
    <path id="Path_147" data-name="Path 147" d="M294.36,209.08c.147.2.3.385.459.571.086.1.175.2.265.3q.067.076.138.148a10.987,10.987,0,0,0,1.2,1.085l.03.021a11.15,11.15,0,0,0,3.317,1.782l.15.048c.092.031.188.059.282.086l.038.012c.048.013.1.028.145.04a11.151,11.151,0,0,0,2.936.39c.165,0,.338,0,.506-.012a15.843,15.843,0,0,0-.036-4.221,6.779,6.779,0,0,0-.407-.728c-.813-1.308-2.305-3.274-2.225-3.522a2.578,2.578,0,0,0,.068-.371c.087-.649.175-1.836.175-1.836h0c-.036,0-.774.018-1.859,1.5a5.489,5.489,0,0,1-3.542,1.721S295.251,205.758,294.36,209.08Z" transform="translate(-253 -173.396)" fill="#555388"/>
    <path id="Path_148" data-name="Path 148" d="M362.1,213.988s.122.97.282,2.129h.016l.14-.049a10.857,10.857,0,0,0,1.548-.685l.031-.016.165-.091a11.171,11.171,0,0,0,2.032-1.462l.054-.051a10.465,10.465,0,0,0,.957-.988l.035-.041a4.356,4.356,0,0,0-1.811-2.683,3.235,3.235,0,0,1-1.418-1.215c-.3-.708-2.994-2.205-2.994-2.205v.012c0,.127-.043,1.288-.107,2.455-.041.759-.092,1.522-.151,2.006a2.341,2.341,0,0,1-.086.464C360.58,212.066,362.1,213.988,362.1,213.988Z" transform="translate(-308.474 -176.537)" fill="#555388"/>
  </g>
</svg>
