<svg xmlns="http://www.w3.org/2000/svg" width="194.641" height="196.789" viewBox="0 0 194.641 196.789">
  <g id="Group_177" data-name="Group 177" transform="translate(-993.563 -123.489)">
    <g id="Ellipse_44" data-name="Ellipse 44" transform="translate(1017 143)" fill="#fff" stroke="#707070" stroke-width="1">
      <ellipse cx="74" cy="82.5" rx="74" ry="82.5" stroke="none"/>
      <ellipse cx="74" cy="82.5" rx="73.5" ry="82" fill="none"/>
    </g>
    <g id="account_circle-24px" transform="translate(996 127)">
      <path id="Path_187" data-name="Path 187" d="M99.32,2C45.6,2,2,46.081,2,100.394s43.6,98.394,97.32,98.394,97.32-44.081,97.32-98.394S153.041,2,99.32,2Zm0,29.518a29.52,29.52,0,1,1-29.2,29.518A29.319,29.319,0,0,1,99.32,31.518Zm0,139.72a69.882,69.882,0,0,1-58.392-31.683c.292-19.58,38.928-30.305,58.392-30.305,19.367,0,58.1,10.725,58.392,30.305A69.882,69.882,0,0,1,99.32,171.238Z" transform="translate(-4.437 -5.511)" fill="#353535"/>
      <path id="Path_186" data-name="Path 186" d="M0,0H189.767V189.767H0Z" fill="none"/>
    </g>
  </g>
</svg>
