<svg id="alternate_email-24px" xmlns="http://www.w3.org/2000/svg" width="40" height="40" viewBox="0 0 40 40">
  <path id="Path_176" data-name="Path 176" d="M0,0H40V40H0Z" fill="none"/>
  <path id="Path_177" data-name="Path 177" d="M18.667,2a16.667,16.667,0,1,0,0,33.333H27V32H18.667A13.5,13.5,0,0,1,5.333,18.667,13.5,13.5,0,0,1,18.667,5.333,13.5,13.5,0,0,1,32,18.667V21.05a2.694,2.694,0,0,1-2.5,2.617A2.694,2.694,0,0,1,27,21.05V18.667a8.336,8.336,0,1,0-2.433,5.883A6.172,6.172,0,0,0,29.5,27a5.855,5.855,0,0,0,5.833-5.95V18.667A16.673,16.673,0,0,0,18.667,2Zm0,21.667a5,5,0,1,1,5-5A4.993,4.993,0,0,1,18.667,23.667Z" transform="translate(1.333 1.333)" fill="#f19721"/>
</svg>
