<svg xmlns="http://www.w3.org/2000/svg" width="33" height="31" viewBox="0 0 33 31">
  <g id="Polygon_9" data-name="Polygon 9" fill="none">
    <path d="M16.5,0l5.445,9.734L33,11.841l-7.69,8.123L26.7,31,16.5,26.286,6.3,31,7.69,19.964,0,11.841,11.055,9.734Z" stroke="none"/>
    <path d="M 16.5 5.120906829833984 L 13.23683929443359 10.95437049865723 L 12.66787910461426 11.97146987915039 L 11.52306938171387 12.18967056274414 L 4.957380294799805 13.44108200073242 L 9.505319595336914 18.24518013000488 L 10.31767082214355 19.10329055786133 L 10.17028999328613 20.27571105957031 L 9.345155715942383 26.83940887451172 L 15.45105934143066 24.01707077026367 L 16.5 23.53221893310547 L 17.5489387512207 24.01707077026367 L 23.65485000610352 26.83941268920898 L 22.82971954345703 20.27569961547852 L 22.68233871459961 19.10329055786133 L 23.49468994140625 18.24518013000488 L 28.04262351989746 13.44108390808105 L 21.4769287109375 12.18967056274414 L 20.33211898803711 11.97146987915039 L 19.76316070556641 10.95437049865723 L 16.5 5.120906829833984 M 16.5 0 L 21.94499969482422 9.733879089355469 L 33 11.84095001220703 L 25.31019973754883 19.9638786315918 L 26.69755935668945 31 L 16.5 26.28636932373047 L 6.302440643310547 31 L 7.689809799194336 19.9638786315918 L 0 11.84095001220703 L 11.05500030517578 9.733879089355469 L 16.5 0 Z" stroke="none" fill="#3e3e3e"/>
  </g>
</svg>
