<svg xmlns="http://www.w3.org/2000/svg" width="33" height="31" viewBox="0 0 33 31">
  <g id="Polygon_9" data-name="Polygon 9" fill="none">
    <path d="M16.5,0l5.445,9.734L33,11.841l-7.69,8.123L26.7,31,16.5,26.286,6.3,31,7.69,19.964,0,11.841,11.055,9.734Z" stroke="none"/>
    <path d="M 16.5 6.145074844360352 L 13.6732006072998 11.1984691619873 L 12.99045944213867 12.41898918151855 L 11.61668968200684 12.68083000183105 L 5.948856353759766 13.76111221313477 L 9.868419647216797 17.90143966674805 L 10.8432502746582 18.93117141723633 L 10.66637992858887 20.33806991577148 L 9.953691482543945 26.00729370117188 L 15.24127006530762 23.56320953369141 L 16.5 22.98138999938965 L 17.75872993469238 23.56320953369141 L 23.04631423950195 26.00729560852051 L 22.3336296081543 20.33806991577148 L 22.15676879882813 18.93117141723633 L 23.13158988952637 17.90143966674805 L 27.0511474609375 13.76111221313477 L 21.38331031799316 12.68083000183105 L 20.00954055786133 12.41898918151855 L 19.32680130004883 11.1984691619873 L 16.5 6.145074844360352 M 16.5 0 L 21.94499969482422 9.733879089355469 L 33 11.84095001220703 L 25.31019973754883 19.9638786315918 L 26.69755935668945 31 L 16.5 26.28636932373047 L 6.302440643310547 31 L 7.689809799194336 19.9638786315918 L 0 11.84095001220703 L 11.05500030517578 9.733879089355469 L 16.5 0 Z" stroke="none" fill="#3e3e3e"/>
  </g>
</svg>
