<svg id="fastfood-24px" xmlns="http://www.w3.org/2000/svg" width="42.309" height="42.309" viewBox="0 0 42.309 42.309">
  <path id="Path_178" data-name="Path 178" d="M0,0H42.309V42.309H0Z" fill="none"/>
  <path id="Path_179" data-name="Path 179" d="M31.074,39.765H34a2.913,2.913,0,0,0,2.873-2.574L39.783,8.14H30.969V1H27.5V8.14H18.734l.529,4.125a18.07,18.07,0,0,1,7.527,3.984c2.539,2.5,4.284,5.095,4.284,9.326V39.765ZM1,38V36.257H27.5V38a1.772,1.772,0,0,1-1.78,1.763H2.78A1.772,1.772,0,0,1,1,38Zm26.5-12.34c0-14.1-26.5-14.1-26.5,0ZM1.035,29.206H27.478v3.526H1.035Z" transform="translate(0.763 0.763)"/>
</svg>
