<svg xmlns="http://www.w3.org/2000/svg" width="378.064" height="104.7" viewBox="0 0 378.064 104.7">
  <g id="Group_169" data-name="Group 169" transform="translate(-90.333 -300.544)">
    <g id="Group_165" data-name="Group 165" transform="translate(90.348 300.732)">
      <path id="Intersection_20" data-name="Intersection 20" d="M93.325,89.5Q88.2,84.687,88.2,74.436a61.873,61.873,0,0,1,3.375-19,44.1,44.1,0,0,1,11-17.937q7.625-7.563,19.375-7.563,13.75,0,13.75,12a22.4,22.4,0,0,1-4,12.875,29.511,29.511,0,0,1-10.625,9.437,34.32,34.32,0,0,1-14.126,4.063q-.25,2.75-.25,3.749,0,10.376,7.75,10.375a17.749,17.749,0,0,0,7.5-1.875,30.249,30.249,0,0,0,7.25-4.75q-3.375,18.5-21.624,18.5Q98.449,94.312,93.325,89.5Zm20.938-45a66.347,66.347,0,0,0-6.438,17.813,15.818,15.818,0,0,0,8.938-3.125,22.7,22.7,0,0,0,6.75-7.688,20.177,20.177,0,0,0,2.562-9.813q0-5.125-3.125-5.125Q118.575,36.562,114.262,44.5ZM60.95,93.561l8-56.125L45.45,93.561H28.325l2.5-56.375L9.95,93.561h-10L31.7,7.687A28.44,28.44,0,0,0,17.013,18q-5.188,7.187-5.188,17.813,0,4.749.875,6.5a8.16,8.16,0,0,1,.875,2.125Q.2,44.437.2,33.062q0-7.75,5.937-15.563A45.731,45.731,0,0,1,21.388,4.749,39.333,39.333,0,0,1,39.95-.188a28.03,28.03,0,0,1,9.5,1.75L46.575,67.436l27.5-65.875h18l-13.125,92Z" transform="translate(242.35 0)" fill="#e6e6e6"/>
      <path id="Intersection_21" data-name="Intersection 21" d="M6.611,88.437Q-.014,81.311-.014,64.812a100.677,100.677,0,0,1,4.438-28.25,65.339,65.339,0,0,1,14.25-25.938Q28.486-.189,43.61-.188q9.376,0,15.125,4.125t5.75,12.625q0,5.374-2.125,8.438t-6.625,3.062a8.671,8.671,0,0,1-7.125-3.25,9.813,9.813,0,0,0,4-4.5,15.012,15.012,0,0,0,1.75-7,8.186,8.186,0,0,0-1.813-5.5q-1.813-2.125-5.812-2.125-6.626,0-12.625,9.063T24.423,37.562a102.18,102.18,0,0,0-3.687,26.5q0,9.5,3.25,14.5t11.75,5a29.092,29.092,0,0,0,13.625-3.25,30.835,30.835,0,0,0,8.631-6.683,60.512,60.512,0,0,1,3.494-18.192A44.639,44.639,0,0,1,72.735,37.5q7.75-7.563,19.5-7.563,16,0,16,20v.125a5.016,5.016,0,0,0,1.375.125,25.694,25.694,0,0,0,9.5-2.188q.327-.133.65-.27a44.5,44.5,0,0,1,7.85-10.23q7.749-7.563,19.5-7.563,16,0,16,20v.125a5.016,5.016,0,0,0,1.375.125,25.694,25.694,0,0,0,9.5-2.188q.257-.1.511-.211l8.364-39.226,18.5-2.5-9.375,44,24.125-19h12.375l-25,17.375a16.007,16.007,0,0,1,4.126-.5q6.75,0,10.249,4.125a15.665,15.665,0,0,1,3.5,10.5,20.8,20.8,0,0,1-.5,4.75l-1.375,6.25a15.152,15.152,0,0,0-.625,4q0,4.625,4.874,4.625a9.87,9.87,0,0,0,3.5-.374,3.974,3.974,0,0,1,.875-.375,13.1,13.1,0,0,1-2.312,7,14.7,14.7,0,0,1-4.75,4.375,9.836,9.836,0,0,1-4.562,1.5q-7.75,0-11.75-3.688t-4-10.562a31.124,31.124,0,0,1,.75-6.5l1-4.875a20.2,20.2,0,0,0,.5-4.625q0-6-4.5-6a9.152,9.152,0,0,0-4.188,1.125,29.455,29.455,0,0,0-5.062,3.5l-6.5,30.875h-18l8.531-40.009a50.006,50.006,0,0,1-10.532,2.884,56.583,56.583,0,0,1-5.125,19.876,33.755,33.755,0,0,1-10.625,13.125,23.862,23.862,0,0,1-14.125,4.625q-9.25,0-14.625-4.75t-5.375-15a59.58,59.58,0,0,1,3.5-18.875q.219-.649.454-1.287a50.869,50.869,0,0,1-8.955,2.286,56.6,56.6,0,0,1-5.125,19.876A33.755,33.755,0,0,1,92.111,89.437a23.864,23.864,0,0,1-14.125,4.625q-9.25,0-14.625-4.75a15.758,15.758,0,0,1-4.823-8.995,32.121,32.121,0,0,1-4.8,5.119A41.426,41.426,0,0,1,27.361,95.561Q13.236,95.561,6.611,88.437Zm133.5-44.875a53.018,53.018,0,0,0-6.251,14.375,54.99,54.99,0,0,0-2.375,14.75q0,6,1.375,8.062t5,2.063q3,0,6-3.438A30.8,30.8,0,0,0,149.111,70a60.54,60.54,0,0,0,3.25-13.188q-3.375-.751-3.375-5.25,0-5.126,3.874-6.75-.25-4.126-1.25-5.688a3.83,3.83,0,0,0-3.5-1.562Q143.986,37.562,140.111,43.562Zm-54.876,0a53.044,53.044,0,0,0-6.25,14.375,54.99,54.99,0,0,0-2.375,14.75q0,6,1.375,8.062t5,2.063q3,0,6-3.438A30.777,30.777,0,0,0,94.235,70a60.437,60.437,0,0,0,3.25-13.188q-3.375-.751-3.375-5.25,0-5.126,3.875-6.75-.25-4.126-1.25-5.688a3.831,3.831,0,0,0-3.5-1.562Q89.111,37.562,85.235,43.562Z" transform="translate(0 0)" fill="#f04c84"/>
    </g>
    <path id="Union_10" data-name="Union 10" d="M44.584,12.06c-1.905,1.579-12.545,9.7-24.986,5.25C5.853,12.393,0,4.769,0,4.769s9.411,2.071,16.93.458C22.71,3.986,26.032.388,31,0,40.133.683,43.62,3.444,44.584,4.423,45.548,3.444,49.034.683,58.171,0c4.964.388,8.287,3.986,14.066,5.227,7.519,1.613,16.93-.458,16.93-.458s-5.853,7.624-19.6,12.54a22.3,22.3,0,0,1-7.562,1.318C53.033,18.626,46.087,13.306,44.584,12.06Z" transform="translate(155.271 386.617)" fill="#dfdfdf"/>
  </g>
</svg>
