<svg xmlns="http://www.w3.org/2000/svg" width="219" height="91" viewBox="0 0 219 91">
  <g id="Group_46" data-name="Group 46" transform="translate(-91 -52)">
    <text id="CookMe" transform="translate(91 125)" fill="#f04c84" font-size="73" font-family="Lobster-Regular, Lobster"><tspan x="0" y="0">Cook</tspan><tspan y="0" fill="#353535">Me</tspan></text>
    <path id="Union_5" data-name="Union 5" d="M25.469,6.889c-1.088.9-7.166,5.542-14.274,3C3.344,7.08,0,2.724,0,2.724s5.376,1.183,9.672.262c3.3-.709,5.2-2.764,8.036-2.986,5.219.39,7.211,1.967,7.762,2.527C26.02,1.967,28.012.39,33.232,0c2.836.222,4.734,2.277,8.035,2.986,4.3.922,9.672-.262,9.672-.262S47.6,7.08,39.744,9.888a12.742,12.742,0,0,1-4.32.753A16.628,16.628,0,0,1,25.469,6.889Z" transform="translate(129.454 119.024)" fill="#353535"/>
  </g>
</svg>
