<svg xmlns="http://www.w3.org/2000/svg" width="217.782" height="59.416" viewBox="0 0 217.782 59.416">
  <g id="Group_167" data-name="Group 167" transform="translate(-90.387 -301.25)">
    <g id="Group_165" data-name="Group 165">
      <path id="Intersection_20" data-name="Intersection 20" d="M-1935.578-1336.372q-2.993-2.811-2.993-8.8a36.133,36.133,0,0,1,1.971-11.1,25.755,25.755,0,0,1,6.424-10.475,15.4,15.4,0,0,1,11.315-4.417q8.03,0,8.03,7.008a13.081,13.081,0,0,1-2.336,7.519,17.231,17.231,0,0,1-6.2,5.512,20.036,20.036,0,0,1-8.249,2.372q-.146,1.607-.146,2.191,0,6.059,4.526,6.059a10.364,10.364,0,0,0,4.379-1.1,17.655,17.655,0,0,0,4.234-2.774q-1.971,10.8-12.629,10.8Q-1932.585-1333.562-1935.578-1336.372Zm12.227-26.28a38.7,38.7,0,0,0-3.759,10.4,9.231,9.231,0,0,0,5.219-1.825,13.25,13.25,0,0,0,3.942-4.489,11.78,11.78,0,0,0,1.5-5.73q0-2.993-1.825-2.993Q-1920.831-1367.288-1923.35-1362.652ZM-1954.485-1334l4.672-32.777L-1963.537-1334h-10l1.46-32.923L-1984.269-1334h-5.84l18.542-50.152a16.619,16.619,0,0,0-8.578,6.023,17.309,17.309,0,0,0-3.029,10.4,9.551,9.551,0,0,0,.511,3.8,4.754,4.754,0,0,1,.511,1.241q-7.811,0-7.811-6.643a15,15,0,0,1,3.468-9.088,26.7,26.7,0,0,1,8.906-7.447,22.977,22.977,0,0,1,10.84-2.884,16.374,16.374,0,0,1,5.549,1.022l-1.679,38.471,16.061-38.471h10.512l-7.665,53.728Z" transform="translate(2219 1690)" fill="#353535"/>
      <path id="Intersection_21" data-name="Intersection 21" d="M-1989.744-1336.993q-3.869-4.161-3.869-13.8a58.783,58.783,0,0,1,2.592-16.5,38.157,38.157,0,0,1,8.322-15.147,18.8,18.8,0,0,1,14.563-6.315,14.83,14.83,0,0,1,8.833,2.409q3.357,2.41,3.358,7.373a8.532,8.532,0,0,1-1.241,4.927,4.382,4.382,0,0,1-3.869,1.789,5.063,5.063,0,0,1-4.161-1.9,5.736,5.736,0,0,0,2.335-2.628,8.773,8.773,0,0,0,1.022-4.088,4.776,4.776,0,0,0-1.058-3.212,4.228,4.228,0,0,0-3.395-1.241q-3.869,0-7.373,5.292a45.358,45.358,0,0,0-5.657,13.323,59.66,59.66,0,0,0-2.154,15.476q0,5.547,1.9,8.467t6.862,2.92a16.984,16.984,0,0,0,7.957-1.9,18.018,18.018,0,0,0,5.041-3.9,35.333,35.333,0,0,1,2.041-10.624,26.068,26.068,0,0,1,6.57-10.475,15.643,15.643,0,0,1,11.388-4.417q9.345,0,9.345,11.68v.073a2.937,2.937,0,0,0,.8.073,15.017,15.017,0,0,0,5.548-1.277l.38-.158a25.978,25.978,0,0,1,4.584-5.974,15.643,15.643,0,0,1,11.388-4.417q9.345,0,9.344,11.68v.073a2.948,2.948,0,0,0,.8.073,15.016,15.016,0,0,0,5.548-1.277l.3-.123,4.885-22.909,10.8-1.46-5.475,25.7,14.089-11.1h7.227l-14.6,10.147a9.321,9.321,0,0,1,2.409-.292,7.411,7.411,0,0,1,5.986,2.409,9.147,9.147,0,0,1,2.044,6.132,12.161,12.161,0,0,1-.292,2.775l-.8,3.65a8.825,8.825,0,0,0-.365,2.336q0,2.7,2.847,2.7a5.726,5.726,0,0,0,2.044-.22,2.321,2.321,0,0,1,.511-.219,7.647,7.647,0,0,1-1.35,4.088,8.59,8.59,0,0,1-2.774,2.555,5.744,5.744,0,0,1-2.665.876q-4.527,0-6.862-2.153a7.973,7.973,0,0,1-2.336-6.169,18.162,18.162,0,0,1,.438-3.8l.583-2.847a11.76,11.76,0,0,0,.292-2.7q0-3.5-2.628-3.5a5.357,5.357,0,0,0-2.445.657,17.2,17.2,0,0,0-2.956,2.044l-3.8,18.031H-1897.4l4.982-23.366a29.249,29.249,0,0,1-6.151,1.685,33.057,33.057,0,0,1-2.993,11.607,19.715,19.715,0,0,1-6.205,7.664,13.935,13.935,0,0,1-8.249,2.7q-5.4,0-8.541-2.774t-3.139-8.76a34.8,34.8,0,0,1,2.044-11.023q.128-.379.265-.752a29.757,29.757,0,0,1-5.23,1.336,33.057,33.057,0,0,1-2.992,11.607,19.715,19.715,0,0,1-6.206,7.664,13.933,13.933,0,0,1-8.248,2.7q-5.4,0-8.541-2.774a9.205,9.205,0,0,1-2.817-5.252,18.76,18.76,0,0,1-2.8,2.99,23.728,23.728,0,0,1-7.664,4.489,23.565,23.565,0,0,1-7.738,1.424Q-1985.876-1332.832-1989.744-1336.993Zm77.964-26.207a30.986,30.986,0,0,0-3.65,8.4,32.1,32.1,0,0,0-1.388,8.614q0,3.5.8,4.709a3.252,3.252,0,0,0,2.92,1.2,4.831,4.831,0,0,0,3.5-2.007,17.969,17.969,0,0,0,3.066-5.476,35.339,35.339,0,0,0,1.9-7.7q-1.971-.437-1.971-3.065,0-2.994,2.263-3.942a7.5,7.5,0,0,0-.73-3.322,2.236,2.236,0,0,0-2.044-.913Q-1909.517-1366.7-1911.78-1363.2Zm-32.047,0a30.986,30.986,0,0,0-3.65,8.4,32.09,32.09,0,0,0-1.387,8.614q0,3.5.8,4.709a3.253,3.253,0,0,0,2.92,1.2,4.834,4.834,0,0,0,3.5-2.007,17.987,17.987,0,0,0,3.065-5.476,35.241,35.241,0,0,0,1.9-7.7q-1.971-.437-1.971-3.065,0-2.994,2.264-3.942a7.517,7.517,0,0,0-.73-3.322,2.238,2.238,0,0,0-2.045-.913Q-1941.564-1366.7-1943.827-1363.2Z" transform="translate(2084 1690)" fill="#f04c84"/>
    </g>
    <path id="Union_10" data-name="Union 10" d="M25.469,6.889c-1.088.9-7.166,5.542-14.274,3C3.344,7.08,0,2.724,0,2.724s5.376,1.183,9.672.262c3.3-.709,5.2-2.764,8.036-2.986,5.219.39,7.211,1.967,7.762,2.527C26.02,1.967,28.012.39,33.232,0c2.836.222,4.734,2.277,8.035,2.986,4.3.922,9.672-.262,9.672-.262S47.6,7.08,39.744,9.888a12.742,12.742,0,0,1-4.32.753A16.628,16.628,0,0,1,25.469,6.889Z" transform="translate(127.454 350.024)" fill="#353535"/>
  </g>
</svg>
