<svg xmlns="http://www.w3.org/2000/svg" width="50.939" height="10.641" viewBox="0 0 50.939 10.641">
  <path id="Union_11" data-name="Union 11" d="M25.469,6.889c-1.088.9-7.166,5.542-14.274,3C3.344,7.08,0,2.724,0,2.724s5.376,1.183,9.672.262c3.3-.709,5.2-2.764,8.036-2.986,5.219.39,7.211,1.967,7.762,2.527C26.02,1.967,28.012.39,33.232,0c2.836.222,4.734,2.277,8.035,2.986,4.3.922,9.672-.262,9.672-.262S47.6,7.08,39.744,9.888a12.742,12.742,0,0,1-4.32.753A16.628,16.628,0,0,1,25.469,6.889Z" fill="#353535"/>
</svg>
